<svg width="32" height="33" fill="none" xmlns="http://www.w3.org/2000/svg">
  <path d="M0 2.307C0 1.033 1.06 0 2.365 0h27.27C30.94 0 32 1.033 32 2.307v27.59c0 1.273-1.059 2.306-2.365 2.306H2.365C1.06 32.203 0 31.17 0 29.897V2.307Z" fill="#069"/>
  <path d="M9.7 26.957V12.416H4.867v14.541h4.834ZM7.285 10.431c1.685 0 2.734-1.117 2.734-2.512-.032-1.427-1.05-2.513-2.702-2.513-1.655 0-2.735 1.086-2.735 2.513 0 1.395 1.049 2.512 2.67 2.512h.032Zm5.09 16.526h4.833v-8.12c0-.434.032-.869.16-1.179.349-.868 1.144-1.768 2.48-1.768 1.748 0 2.448 1.334 2.448 3.289v7.778h4.833V18.62c0-4.467-2.384-6.545-5.564-6.545-2.607 0-3.752 1.457-4.388 2.45h.032v-2.109h-4.833c.063 1.364 0 14.541 0 14.541Z" fill="#fff"/>
</svg>
