<svg width="24" height="24" fill="none" xmlns="http://www.w3.org/2000/svg">
  <circle cx="12" cy="12" r="12" fill="#fff"/>
  <g clip-path="url(#a)">
    <path fill-rule="evenodd" clip-rule="evenodd" d="M18.003 8.303c-.479.22-.993.37-1.532.436.55-.343.974-.889 1.171-1.537a5.22 5.22 0 0 1-1.693.675A2.618 2.618 0 0 0 14 7c-1.472 0-2.667 1.244-2.667 2.777 0 .218.023.43.07.633-2.218-.116-4.183-1.223-5.498-2.903-.229.41-.36.887-.36 1.396 0 .963.47 1.813 1.186 2.31a2.583 2.583 0 0 1-1.208-.347v.034c0 1.345.92 2.468 2.14 2.723a2.602 2.602 0 0 1-1.205.046c.34 1.103 1.325 1.907 2.49 1.93A5.218 5.218 0 0 1 5 16.748a7.334 7.334 0 0 0 4.09 1.249c4.905 0 7.588-4.232 7.588-7.902 0-.12-.002-.24-.007-.36.521-.391.973-.88 1.33-1.437l.002.004Z" fill="#1C383C"/>
  </g>
  <defs>
    <clipPath id="a">
      <path fill="#fff" transform="translate(5 7)" d="M0 0h13v11H0z"/>
    </clipPath>
  </defs>
</svg>
