<svg width="155" height="168" fill="none" xmlns="http://www.w3.org/2000/svg"><path d="M7.9063 50.248c.58 4.26 2.46 8.48 5.91 10.87a20.432 20.432 0 0 0 7.83 2.8 122.0955 122.0955 0 0 0 18.38 2.18c5 .21 9.83 1.07 14.33-1.93a14.58 14.58 0 0 0 5.88-8 22.8792 22.8792 0 0 0 .79-6.33c0-2.54-.2-5.08-.37-7.58-8.36-1.34-17.45-.67-25.94-1.43-8.49-.76-17.07-1.82-25.53-3.14-.24 0-.55 0-.66.19-.11.19-1.19 8.13-.62 12.37Z" fill="#D9D9D9" stroke="#1B383C" stroke-width="2" stroke-miterlimit="10"/><path d="M5.8262 33.7979v-.33a1.2403 1.2403 0 0 1 1.34-1.14l9.58.89v-.07a2.56 2.56 0 0 1 2.11-2.33 7.8698 7.8698 0 0 1 3.3.23c8.69 1.79 17.69 1.09 26.58 1.21a10.9308 10.9308 0 0 1 4.48.71 5.9407 5.9407 0 0 1 2.9 3.89l7.28.67a1.2097 1.2097 0 0 1 .8277.4516 1.2104 1.2104 0 0 1 .2523.9084l-.36 3.41a1.2702 1.2702 0 0 1-1.36 1.13l-56.18-5.2a1.2184 1.2184 0 0 1-.8243-.4542 1.22 1.22 0 0 1-.2557-.9058 14.569 14.569 0 0 0 .33-3.07Z" fill="#FF9820" stroke="#1B383C" stroke-width="2" stroke-miterlimit="10"/><path d="M30.5562 27.748a11.1289 11.1289 0 0 0 5.32 7 14.5495 14.5495 0 0 0 5.82 1.13 85.5428 85.5428 0 0 0 13.19-.43c3.52-.38 7-.3 9.89-2.89a10.5002 10.5002 0 0 0 3.25-6.28c.1497-1.5.0993-3.0133-.15-4.5-.26-1.79-.69-3.56-1.08-5.31-6 0-12.36 1.4-18.43 1.77-6.07.37-12.19.52-18.29.51-.17 0-.39 0-.44.21a39.2533 39.2533 0 0 0 .92 8.79Z" fill="#D9D9D9" stroke="#1B383C" stroke-width="2" stroke-miterlimit="10"/><path d="M27.3262 16.3781v-.24a.9008.9008 0 0 1 .2207-.6448.9008.9008 0 0 1 .6093-.3052l6.87-.39v-.06a1.8202 1.8202 0 0 1 1.24-1.86 5.6304 5.6304 0 0 1 2.35-.19c6.31.33 12.58-1.13 18.86-2a7.9303 7.9303 0 0 1 3.22 0 4.2487 4.2487 0 0 1 1.4939.9519c.4256.4186.7582.9223.9761 1.4781l5.1901-.3a.8487.8487 0 0 1 .6329.2199.8494.8494 0 0 1 .277.6101l.11 2.45a.91.91 0 0 1-.83.94l-40.22 2.38a.8696.8696 0 0 1-.6275-.237.8696.8696 0 0 1-.2725-.613 9.9949 9.9949 0 0 0-.1-2.19Z" fill="#FF9820" stroke="#1B383C" stroke-width="2" stroke-miterlimit="10"/><path d="M59.3361 90.5881c1.85 5.36 5.38 10.3399 10.46 12.5499 3.39 1.47 7.18 1.61 10.87 1.61 8.1572-.025 16.3007-.67 24.3599-1.93 6.5-1 13-1.16 18.07-6.1999a19.369 19.369 0 0 0 5.54-12 30.602 30.602 0 0 0-.67-8.32c-.63-3.3-1.57-6.54-2.44-9.74-11.17.43-22.77 3.65-33.9999 4.86-11.23 1.21-22.5 2.06-33.78 2.59-.32 0-.72.1-.8.42-.08.32.55 10.8 2.39 16.16Z" fill="#D9D9D9" stroke="#1B383C" stroke-width="2" stroke-miterlimit="10"/><path d="M52.3962 69.8081v-.44a1.65 1.65 0 0 1 1.45-1.82l12.64-1.32v-.09a3.3702 3.3702 0 0 1 2.14-3.56 10.5203 10.5203 0 0 1 4.26-.57c11.72.08 23.21-3.16 34.7498-5.3a14.3904 14.3904 0 0 1 6-.23c1.57.37 4.19 2.34 4.77 4.28l9.6-1a1.5816 1.5816 0 0 1 1.19.3607c.163.1374.297.3065.394.4972.096.1907.153.3989.166.6121l.41 4.52c.04.4323-.09.863-.363 1.2009a1.6716 1.6716 0 0 1-1.097.6091l-74.1998 7.8a1.6186 1.6186 0 0 1-1.185-.3809 1.6205 1.6205 0 0 1-.565-1.1091 19.6 19.6 0 0 0-.36-4.06Z" fill="#FF9820" stroke="#1B383C" stroke-width="2" stroke-miterlimit="10"/><path d="M78.1862 90.8181a15.3313 15.3313 0 0 0 1.17 3.13 4.4906 4.4906 0 0 0 1.22 1.63c1.27 1 3.13.53 4.43-.37a7.6605 7.6605 0 0 0 2.65-3.2c1.68-4 1.37-12-4.24-12.72-3.5-.44-5.28 4.14-5.59 7a12.6408 12.6408 0 0 0 .36 4.53ZM96.4064 90.5979c.1614.314.3523.612.57.89a4.9993 4.9993 0 0 0 4.6496 2 5.426 5.426 0 0 0 2.24-1.1664 5.4168 5.4168 0 0 0 1.47-2.0536 15.124 15.124 0 0 0 1-5c.3-3.46-1.41-7.54-5.22-8.35-3.3096-.71-4.2596 1.63-4.8696 4.3a24.5078 24.5078 0 0 0-.8 5.24 8.8186 8.8186 0 0 0 .96 4.14Z" fill="#fff" stroke="#1B383C" stroke-width="2" stroke-miterlimit="10"/><path d="M104.416 43.148c0 3.63 1 7.39 3.6 9.81a17.3703 17.3703 0 0 0 6.21 3.3 101.6678 101.6678 0 0 0 15.1 4.08c4.13.78 8.08 2.1 12.21.15a12.3583 12.3583 0 0 0 5.9-6 19.4134 19.4134 0 0 0 1.39-5.15c.33-2.12.46-4.27.62-6.39-6.82-2.14-14.5-2.69-21.5-4.38s-14-3.63-20.92-5.75c-.19-.06-.45-.1-.57.08-.12.18-2 6.63-2.04 10.25Z" fill="#D9D9D9" stroke="#1B383C" stroke-width="2" stroke-miterlimit="10"/><path d="m104.706 29.1481.07-.28a.9927.9927 0 0 1 .158-.3831.9875.9875 0 0 1 .299-.2862 1.003 1.003 0 0 1 .39-.1403.999.999 0 0 1 .413.0296l7.89 1.92a.1219.1219 0 0 0 0-.06c.104-.4611.355-.8756.716-1.1807.361-.305.812-.4839 1.284-.5093a6.8476 6.8476 0 0 1 2.73.6c7 2.57 14.65 3.08 22.07 4.27a9.4062 9.4062 0 0 1 3.65 1.15 5.002 5.002 0 0 1 1.39 1.589c.345.6225.553 1.3116.61 2.021l6 1.45c.135.0298.262.0872.374.1686.111.0814.205.185.274.3043.07.1193.114.2517.13.3889.015.1372.003.2762-.038.4082l-.72 2.81a1.0706 1.0706 0 0 1-1.27.77l-46.34-11.25a1.0054 1.0054 0 0 1-.374-.1687.9986.9986 0 0 1-.274-.3043.9784.9784 0 0 1-.129-.3889.9886.9886 0 0 1 .037-.4081c.307-.8147.529-1.6593.66-2.52Z" fill="#FF9820" stroke="#1B383C" stroke-width="2" stroke-miterlimit="10"/><path d="M56.0761 54.1081c1.6 4 4.45 7.62 8.37 9.1a20.2606 20.2606 0 0 0 8.28.8 119.9108 119.9108 0 0 0 18.37-2.36c4.87-1 9.7899-1.35 13.4299-5.35a14.6378 14.6378 0 0 0 3.75-9.24 23.7006 23.7006 0 0 0-.81-6.27c-.6-2.47-1.43-4.88-2.21-7.27-8.4299.74-17.0799 3.6-25.5099 4.93-8.43 1.33-17 2.35-25.49 3.15-.24 0-.54.1-.59.34-.05.24.82 8.18 2.41 12.17Z" fill="#D9D9D9" stroke="#1B383C" stroke-width="2" stroke-miterlimit="10"/><path d="M50.0261 38.658v-.34a1.2297 1.2297 0 0 1 1-1.42l9.5-1.47v-.07a2.5602 2.5602 0 0 1 1.5-2.77 7.7495 7.7495 0 0 1 3.24-.58c8.86-.37 17.43-3.25 26.08-5.3a10.9992 10.9992 0 0 1 4.51-.39 6.0004 6.0004 0 0 1 3.77 3.06l7.2099-1.11a1.202 1.202 0 0 1 .471.0164c.154.0364.299.1031.427.196a1.1976 1.1976 0 0 1 .482.7876l.48 3.4c.047.3197-.03.6455-.216.9098a1.2606 1.2606 0 0 1-.784.5102l-55.8299 8.68a1.2194 1.2194 0 0 1-.9122-.2408 1.2188 1.2188 0 0 1-.4678-.8192 14.7487 14.7487 0 0 0-.46-3.05Z" fill="#FF9820" stroke="#1B383C" stroke-width="2" stroke-miterlimit="10"/><path d="M81.2462 81.228a3.54 3.54 0 0 1 2.37-.83 2.5904 2.5904 0 0 1 1.9.56 3.2305 3.2305 0 0 1 .72 2.05c.11 1.2.16 2.56-.64 3.46-1.09 1.22-3.44 2.62-4.6 1.18-1.16-1.44-1.11-5.13.25-6.42ZM97.566 83.078c-.39-1.54-.64-3.42.53-4.49a3.6606 3.6606 0 0 1 2.51-.78 4.0517 4.0517 0 0 1 2.12.47 3.509 3.509 0 0 1 1.005 1.0219c.262.406.437.8615.515 1.3381.158.9486.182 1.9148.07 2.87a2.2949 2.2949 0 0 1-.15.79 1.892 1.892 0 0 1-.83.75c-2.83 1.62-4.92 1.34-5.77-1.97Z" fill="#1B383C" stroke="#1B383C" stroke-width="2" stroke-miterlimit="10"/><path d="M57.8862 87.4079c-11-.89-22-4-31.27-10s-16.93-14.76-20.59-25.2c-2.2-6.44-2.9-13.3-3.58-20.08l-1.32-13.12a8.71 8.71 0 0 1 .48-4.67 5.7195 5.7195 0 0 1 4.11-2.93 2.0503 2.0503 0 0 1 2.16.42c.205.3137.3.6865.27 1.06a5.5398 5.5398 0 0 1-.91 2.64 14.3402 14.3402 0 0 1-3.9 4.27M127.586 78.828c14.34-7 21.3-23.61 24.11-39.33a129.717 129.717 0 0 0 1.21-37.43 4.3584 4.3584 0 0 0-2.613-1.0611 4.3633 4.3633 0 0 0-2.717.7611 5.3783 5.3783 0 0 0-1.943 2.2141 5.3786 5.3786 0 0 0-.487 2.906c.05.6852.296 1.3416.71 1.89.242.274.537.4963.867.6534a2.71 2.71 0 0 0 2.126.087c.342-.1296.654-.327.917-.5805" stroke="#1B383C" stroke-width="2" stroke-miterlimit="10" stroke-linecap="round"/><path d="M86.546 17.868c.52 3.42 2.1 6.8 4.91 8.67a16.3385 16.3385 0 0 0 6.35 2.15 97.3023 97.3023 0 0 0 14.85 1.5c4 .1 7.94.72 11.52-1.75a11.7985 11.7985 0 0 0 4.63-6.58c.395-1.6598.566-3.3648.51-5.07 0-2-.23-4.09-.41-6.1-6.75-1-14.07-.29-20.93-.79-6.86-.5-13.75-1.25-20.58-2.17-.19 0-.45 0-.53.16a44.0046 44.0046 0 0 0-.32 9.98Z" fill="#D9D9D9" stroke="#1B383C" stroke-width="2" stroke-miterlimit="10"/><path d="M84.6363 4.6381v-.27a.9997.9997 0 0 1 1.06-.93l7.76.57v-.06a2.0599 2.0599 0 0 1 1.67-1.9 6.47 6.47 0 0 1 2.66.13c6.9997 1.33 14.2797.63 21.4397.6a8.8486 8.8486 0 0 1 3.62.52 4.7569 4.7569 0 0 1 2.39 3.09l5.87.44c.262.0254.504.153.672.3552a.9944.9944 0 0 1 .228.7248l-.25 2.75a.9958.9958 0 0 1-.102.3778c-.059.1179-.14.2232-.239.3096a1.0011 1.0011 0 0 1-.729.2426l-45.3797-3.39a1 1 0 0 1-.89-1.08 12.232 12.232 0 0 0 .22-2.48Z" fill="#FF9820" stroke="#1B383C" stroke-width="2" stroke-miterlimit="10"/><path d="m101.936 103.518 5.57 25.49c.517 2.054.832 4.154.94 6.27a32.2034 32.2034 0 0 1-1.42 8.57l-3.24 12.47c-.57 2.19-1.14 4.5-.59 6.7.55 2.2 2.66 4.19 4.89 3.79M86.2864 105.628l4 22.57a8.5399 8.5399 0 0 1 .06 4.14c-.8 2.41-3.47 3.58-5.86 4.45l-21.78 8a13.88 13.88 0 0 0 2.14 9.28" stroke="#1B383C" stroke-width="2" stroke-miterlimit="10" stroke-linecap="round"/><path d="M100.716 99.148a9.3107 9.3107 0 0 0 4.877-.7775 9.3059 9.3059 0 0 0 3.793-3.1625" stroke="#1B383C" stroke-width="2" stroke-miterlimit="10"/></svg>