<svg width="38" height="38" fill="none" xmlns="http://www.w3.org/2000/svg"><mask id="a" style="mask-type:alpha" maskUnits="userSpaceOnUse" x="0" y="0" width="38" height="38"><circle cx="19" cy="19" r="18.25" fill="#fff" stroke="#1C383C" stroke-width="1.5"/></mask><g clip-path="url(#b)" stroke="#1C383C" stroke-width="1.5" stroke-miterlimit="10" mask="url(#a)"><path d="M-13.5519 23.8743c1.6095 4.8898 4.792 9.4898 9.511 11.6389a26.1778 26.1778 0 0 0 10.1449 1.799 156.016 156.016 0 0 0 22.8993-.9538c6.0968-.7124 12.1935-.6279 17.0709-5.0106 3.047-2.7697 4.9859-6.5323 5.4627-10.6005a26.4017 26.4017 0 0 0-.4146-7.4615c-.5121-2.9942-1.3169-5.9523-2.0607-8.862-10.4742 0-21.4239 2.5596-31.9469 3.2961-10.523.7365-21.18 1.0866-31.7762 1.2074-.2926 0-.6706 0-.756.35-.0854.3502.2561 9.6952 1.8656 14.597Z" fill="#DADADA"/><path d="M-25.5503 5.7878a2.2258 2.2258 0 0 0 .0732 1.7265c.2834.366.6554.6551 1.0817.8409.4263.1857.893.262 1.357.2216 1.7436.0724 3.719 0 3.719 0 .0251.3885.2022.7521.4936 1.0136a1.5206 1.5206 0 0 0 1.0672.3869L51.9759 5.329a1.5294 1.5294 0 0 0 1.0377-.5092 1.4997 1.4997 0 0 0 .3767-1.0845l-.2804-4.0809a1.4751 1.4751 0 0 0-.1518-.5645 1.4882 1.4882 0 0 0-.3599-.4628 1.5042 1.5042 0 0 0-.5124-.2896 1.5137 1.5137 0 0 0-.5855-.0716l-9.011.6037a7.3651 7.3651 0 0 0-1.7634-2.4642 7.453 7.453 0 0 0-2.614-1.5563 14.1469 14.1469 0 0 0-5.609 0C21.6385-3.5934 10.7985-1.0338-.1878-1.5288a10.2413 10.2413 0 0 0-4.0727.3622A3.045 3.045 0 0 0-5.8565.0426a2.9955 2.9955 0 0 0-.489 1.93.2274.2274 0 0 0 0 .0844l-11.8765.7969a1.499 1.499 0 0 0-.5836.1598 1.4846 1.4846 0 0 0-.4709.3769 1.4677 1.4677 0 0 0-.2802.5314 1.4592 1.4592 0 0 0-.0432.598v.3985c-1.2193-.1932-4.792-.5433-5.2554-.2415a1.9417 1.9417 0 0 0-.695 1.1108Z" fill="#F49825"/><path d="M13.1518 12.3554a4.394 4.394 0 0 1 1.4908 1.1917 4.3408 4.3408 0 0 1 .8382 1.7059 8.6828 8.6828 0 0 1 0 3.8394 12.4921 12.4921 0 0 1-1.7315 4.6362c-.8779 1.3281-2.3655 2.5234-3.8897 2.1612a3.1293 3.1293 0 0 1-1.169-.6564 3.0912 3.0912 0 0 1-.782-1.0822 6.5957 6.5957 0 0 1-.5243-2.6682c-.061-2.8373 1.2315-11.0836 5.7675-9.1276ZM25.5282 11.6436a4.2957 4.2957 0 0 1 1.9821 1.2979 4.2315 4.2315 0 0 1 .9809 2.1431 8.8548 8.8548 0 0 1-.6828 4.6724 9.526 9.526 0 0 1-2.2924 3.6221 4.68 4.68 0 0 1-1.8556 1.0716 4.715 4.715 0 0 1-2.1439.1358 2.8994 2.8994 0 0 1-1.4632-.7607 3.9722 3.9722 0 0 1-.8901-2.475c-.2805-3.2358 1.3535-10.8904 6.365-9.7072Z" fill="#fff"/><path d="M25.1502 15.7a13.5356 13.5356 0 0 1-1.3047 3.1029 5.9778 5.9778 0 0 1-2.146 2.5837 1.1424 1.1424 0 0 1-.7926.1811 1.0104 1.0104 0 0 1-.4363-.3158.9978.9978 0 0 1-.21-.4931 9.7589 9.7589 0 0 1-.0975-5.0588 5.1647 5.1647 0 0 1 1.3778-2.5355c.5731-.5312 2.2315-1.4488 3.1704-.821.9389.6279.6218 2.5355.4389 3.3565ZM11.6522 13.3701a2.8389 2.8389 0 0 1 .4389 1.9438c-.1229 2.4201-.972 4.749-2.4387 6.6888-.2195.2776-.6096.5674-.9023.3501a.6384.6384 0 0 1-.1707-.2898 11.9587 11.9587 0 0 1-.0732-6.3627c.183-1.0504 1.4755-4.4431 3.146-2.3302Z" fill="#1C383C"/><path d="M18.7365 32.132a6.5483 6.5483 0 0 0 3.7866-.004c1.2337-.3742 2.3267-1.1042 3.1392-2.0968M22.175 1.1272a81.1094 81.1094 0 0 0 14.0225-2.5354"/></g><circle cx="19" cy="19" r="18.25" stroke="#1C383C" stroke-width="1.5"/><defs><clipPath id="b"><path fill="#fff" transform="translate(-26.2941 -6.0322)" d="M0 0h80.2941v44.0322H0z"/></clipPath></defs></svg>