<svg width="306" height="282" fill="none" xmlns="http://www.w3.org/2000/svg"><g clip-path="url(#a)" stroke-width="4" stroke-miterlimit="10"><path d="M155.63 115.56c-5.16-4.08-5.88-11.87-3.86-18.13s6.18-11.56 9.52-17.24c4.55-7.75 7.64-16.54 7.66-25.54.02-9-3.26-18.18-9.86-24.29" stroke="#74ED0A"/><path d="M55.5 234c8.13 18.81 22.22 35.79 41.13 42.34 12.61 4.36 26.3 3.83 39.61 2.78a576.864 576.864 0 0 0 87.33-13.66c23.13-5.45 46.55-7.74 63.38-27.3a70.003 70.003 0 0 0 16.66-44.58c.08-10.11-2-20.09-4.68-29.8-3.18-11.7-7.46-23.11-11.5-34.39-40.12 4.61-81 19.42-121 26.83-40.21 7.45-80.65 13.45-121.2 18.38-1.15.14-2.58.54-2.76 1.72-.18 1.18 4.9 38.84 13.03 57.68Z" fill="#D9D9D9" stroke="#1B383C"/><path d="M2.21 167.07c-.4 2.35-.32 4.93 1 6.87 2 3 6.18 3.42 9.71 3.17 6.7-.46 14.26-1.57 14.26-1.57a5.84 5.84 0 0 0 6.71 4.88L299 131.93a6.003 6.003 0 0 0 4.76-6.93L301 108.84a5.742 5.742 0 0 0-.78-2.159 5.748 5.748 0 0 0-3.655-2.623 5.76 5.76 0 0 0-2.295-.048L260 110.28c-2.62-6.83-12.63-13.2-18.37-14.13-7.19-1.14-14.44.61-21.48 2.48-41 10.88-81.49 25.74-123.74 28.68-5.28.41-10.75.66-15.44 3.19-4.69 2.53-8.31 8.19-6.72 13.42 0 .11.09.22.11.33l-45.14 8.25a5.94 5.94 0 0 0-4.72 6.95l.25 1.58c-4.75-.24-18.59-.03-20.23 1.32a8.003 8.003 0 0 0-2.31 4.72Z" fill="#FF9820" stroke="#1B383C"/><path d="M153.1 176.6c4.71 1.51 8.29 5.76 10.1 10.57 1.81 4.81 2 10.13 1.66 15.3a51.425 51.425 0 0 1-4.78 19.19c-2.78 5.67-8 11.05-14 10.27-3.46-.46-6.45-3-8.28-6.09a27.186 27.186 0 0 1-3.07-10.42c-1.39-11.24.21-44.63 18.37-38.82ZM200.22 168.45c6.15.79 11 6.3 12.75 12.43s.86 12.74-.74 18.92c-1.44 5.59-3.55 11.15-7.26 15.5s-9.26 7.34-14.84 6.75a10.773 10.773 0 0 1-5.92-2.43c-2.64-2.29-3.74-5.94-4.39-9.44-2.4-13.01.74-44.27 20.4-41.73Z" fill="#fff" stroke="#1B383C"/><path d="M201.42 191.61c-.53 4.44-2.13 8.71-3.77 12.92-1.64 4.21-3.39 8.37-7.15 11.21a4.174 4.174 0 0 1-2.95 1c-1.53-.22-2.34-1.66-2.83-2.93a40.215 40.215 0 0 1-2.39-20.11 20.625 20.625 0 0 1 4.23-10.67c2-2.4 8-6.74 11.8-4.68 3.8 2.06 3.44 10.11 3.06 13.26ZM148.77 188.29c1.87 2 2.33 4.85 2.49 7.54a49.936 49.936 0 0 1-6.61 27.71c-.69 1.2-2.1 2.54-3.27 1.78a2.529 2.529 0 0 1-.8-1c-3.8-7.68-3.39-16.63-2.9-25.14.26-4.48 3.86-18.57 11.09-10.89Z" fill="#1B383C" stroke="#1B383C"/><path d="M281.11 167.4c3.46 12.33 6.95 25.25 4.48 37.86a50.825 50.825 0 0 1-3.13 9.94c-3.1 7.29-7.64 14.08-13.83 18.84M99.14 144.29a375.533 375.533 0 0 0 67.76-12.39M207.07 123.67a6.435 6.435 0 0 0-2.55.47l-14 4.58M181.08 251.7a25.608 25.608 0 0 0 23.52-12" stroke="#1B383C"/><path d="m160 30.11-.25.13c-.18-2.8-.82-5.58-.7-8.39A18.768 18.768 0 0 1 165.5 9a29.8 29.8 0 0 1 13.16-6.46c.1 3.43.17 7.08-.95 10.32a21.36 21.36 0 0 1-5 7.59c-3 3.22-7.75 8-12.09 9.35-2.23.69-5.15.06-7.53.36a33.487 33.487 0 0 0-8.47 2.22 16.312 16.312 0 0 0-4.16 2.32c-2.9 2.34-4.41 5.95-5.8 9.41 2.82-.22 5.56.87 8.39 1A15.67 15.67 0 0 0 154 41c2.9-2.63 5.72-6.93 6-10.89Z" fill="#74ED0A" stroke="#74ED0A"/></g><defs><clipPath id="a"><path fill="#fff" d="M0 0h305.84v281.81H0z"/></clipPath></defs></svg>