<svg width="63" height="88" fill="none" xmlns="http://www.w3.org/2000/svg"><path d="M63 2c0-.8284-.6716-1.5-1.5-1.5-.8285 0-1.5.6716-1.5 1.5h3ZM13.0607.9393c-.5858-.5857-1.5356-.5857-2.1214 0l-9.546 9.546c-.5857.5858-.5857 1.5355 0 2.1213.5859.5858 1.5356.5858 2.1214 0L12 4.1213l8.4853 8.4853c.5858.5858 1.5355.5858 2.1213 0 .5858-.5858.5858-1.5355 0-2.1213L13.0607.9393ZM60 2v59.75h3V2h-3ZM13.5 61.75V2h-3v59.75h3ZM36.75 85C23.9094 85 13.5 74.5906 13.5 61.75h-3C10.5 76.2475 22.2525 88 36.75 88v-3ZM60 61.75C60 74.5906 49.5906 85 36.75 85v3C51.2475 88 63 76.2475 63 61.75h-3Z" fill="#1C383C"/></svg>