<svg width="124" height="122" fill="none" xmlns="http://www.w3.org/2000/svg"><path d="M75.1001 99.8c.6 3.6 2.3 7.1 5.3 9 2 1.3 4.4 1.8 6.7 2.1 5.1.8 10.3 1.3 15.5999 1.3 4.2 0 8.3.6 12-2 2.3-1.6 4-4.2 4.7-6.9.4-1.7.5-3.5.4-5.3-.1-2.1-.3-4.3-.5-6.4-7.1-.9-14.7-.1-21.8999-.5-7.2-.4-14.4-1.1-21.6-1.9-.2 0-.5 0-.5.2s-.8 6.8-.2 10.4Z" fill="#D9D9D9" stroke="#1B383C" stroke-width="2" stroke-miterlimit="10"/><path d="M72.9 86v-.3c0-.6.5-1 1.1-1l8.1.5v-.1c-.1-1 .8-1.8 1.7-2 .9-.2 1.9-.1 2.8.1 7.4 1.3 14.9.4 22.4.3 1.3 0 2.6 0 3.8.5.9.4 2.4 1.9 2.6 3.2l6.1.4c.6 0 1 .5 1 1.1l-.2 2.9c0 .6-.5 1-1.1 1l-47.5-2.8c-.6 0-1-.5-.9-1.1 0-1.1.2-1.7.1-2.7Z" fill="#FF9820" stroke="#1B383C" stroke-width="2" stroke-miterlimit="10"/><path d="M62.0004 84.2c1.3 2.8 3.4 5.3 6.2 6.2 1.9.6 3.9.5 5.9.3 4.4-.4 8.7-1.2 13-2.2 3.4-.9 6.9-1.3 9.4-4.2 1.5-1.8 2.4-4.3 2.4-6.7 0-1.5-.4-3-.8-4.4-.5-1.7-1.2-3.4-1.8-5.1-6 .8-12 3.1-18 4.3-6 1.2-12 2.2-18 3-.2 0-.4.1-.4.3 0 .1.9 5.8 2.1 8.5Z" fill="#D9D9D9" stroke="#1B383C" stroke-width="2" stroke-miterlimit="10"/><path d="M57.3004 73.4v-.2c-.1-.5.2-1 .7-1l6.7-1.3c-.3-.8.3-1.6 1-2 .7-.4 1.5-.4 2.3-.5 6.3-.5 12.3-2.9 18.4-4.6 1-.3 2.1-.6 3.2-.4.9.1 2.4 1.1 2.8 2.1l5.1-1c.5-.1.9.2 1 .7l.4 2.4c.1.5-.2.9-.7 1l-39.4 7.9c-.5.1-.9-.2-1-.7-.3-1-.2-1.6-.5-2.4Z" fill="#FF9820" stroke="#1B383C" stroke-width="2" stroke-miterlimit="10"/><path d="M3 103.4c.5 3.6 2.1 7.1 5 9.2 1.9 1.3 4.2999 1.9 6.5999 2.4 5.1 1 10.3 1.6 15.5 1.8 4.2.2 8.3.9 12.1-1.6 2.4-1.6 4.2-4 5-6.8.5-1.7.6-3.5.6-5.3 0-2.1-.2-4.3-.3-6.4-7-1.1-14.7-.6-21.9-1.2-7.2-.6-14.4-1.6-21.5-2.6-.2 0-.5 0-.6.2 0 .1-.9 6.7-.5 10.3Z" fill="#D9D9D9" stroke="#1B383C" stroke-width="2" stroke-miterlimit="10"/><path d="M1.3002 89.6v-.3c.1-.6.6-1 1.1-1l8.1.7v-.1c0-1 .9-1.8 1.8-2 .9-.2 1.9 0 2.8.2 7.3 1.5 14.9.9 22.4 1 1.3 0 2.6.1 3.8.6.9.4 2.3 2 2.5 3.3l6.1.6c.6 0 1 .6.9 1.1l-.3 2.9c-.1.6-.6 1-1.1 1l-47.5-4.3c-.6-.1-1-.6-.9-1.1.1-1 .4-1.6.3-2.6Z" fill="#FF9820" stroke="#1B383C" stroke-width="2" stroke-miterlimit="10"/><path d="M42.5 111.9c1.3 3.4 3.7 6.4 7.1 7.7 2.2.8 4.6.8 7 .7 5.2-.3 10.4-.9 15.5-2 4.1-.9 8.3-1.1 11.3-4.5 1.9-2.1 3.1-4.9 3.2-7.8.1-1.8-.3-3.6-.7-5.3-.5-2.1-1.2-4.1-1.9-6.1-7.1.6-14.4 3-21.5 4.2-7.1 1.1-14.3 2-21.5 2.7-.2 0-.5.1-.5.3 0 0 .7 6.7 2 10.1Z" fill="#D9D9D9" stroke="#1B383C" stroke-width="2" stroke-miterlimit="10"/><path d="M37.5002 98.8v-.3c-.1-.6.3-1.1.9-1.2l8-1.2V96c-.3-.9.4-1.9 1.3-2.3.8-.4 1.8-.4 2.7-.5 7.5-.3 14.7-2.7 22-4.5 1.3-.3 2.5-.6 3.8-.3 1 .2 2.7 1.4 3.2 2.6l6.1-.9c.6-.1 1.1.3 1.2.9l.4 2.9c.1.6-.3 1.1-.9 1.2l-47 7.3c-.6.1-1.1-.3-1.2-.9-.3-1.1-.2-1.7-.5-2.7Z" fill="#FF9820" stroke="#1B383C" stroke-width="2" stroke-miterlimit="10"/><path d="M25.3003 83.5c.6 3.6 2.3 7.1 5.3 9 2 1.3 4.4 1.8 6.7 2.1 5.1.8 10.3 1.3 15.6 1.3 4.2 0 8.3.6 12-2 2.3-1.6 4-4.2 4.7-6.9.4-1.7.5-3.5.4-5.3-.1-2.1-.3-4.3-.5-6.4-7.1-.9-14.7-.1-21.9-.5-7.2-.4-14.4-1.1-21.6-1.9-.2 0-.5 0-.5.2s-.8 6.9-.2 10.4Z" fill="#D9D9D9" stroke="#1B383C" stroke-width="2" stroke-miterlimit="10"/><path d="M23.1002 69.7v-.3c0-.6.5-1 1.1-1l8.1.5v-.1c-.1-1 .8-1.8 1.7-2 .9-.2 1.9-.1 2.8.1 7.4 1.3 14.9.4 22.4.3 1.3 0 2.6 0 3.8.5.9.4 2.4 1.9 2.6 3.2l6.1.4c.6 0 1 .5 1 1.1l-.2 2.9c0 .6-.5 1-1.1 1l-47.5-2.8c-.6 0-1-.5-.9-1.1 0-1.1.2-1.7.1-2.7Z" fill="#FF9820" stroke="#1B383C" stroke-width="2" stroke-miterlimit="10"/><path d="M30.3003 29.9c1.6 4.5 4.5 8.7 8.8 10.6 2.9 1.2 6.1 1.4 9.2 1.4 6.9 0 13.8-.6 20.6-1.6 5.5-.9 11-1 15.2-5.2 2.7-2.6 4.3-6.3 4.7-10.1.2-2.4-.1-4.7-.6-7-.5-2.8-1.3-5.5-2.1-8.2-9.4.4-19.2 3.1-28.6 4.1-9.5 1-19 1.7-28.5 2.1-.3 0-.6.1-.7.4-.1.2.4 9 2 13.5Z" fill="#D9D9D9" stroke="#1B383C" stroke-width="2" stroke-miterlimit="10"/><path d="M24.4001 12.4V12c-.1-.8.5-1.5 1.2-1.5l10.7-1.1v-.1c-.3-1.2.7-2.5 1.8-3s2.4-.5 3.6-.5c9.9.1 19.6-2.6 29.3-4.4 1.7-.3 3.4-.6 5-.2 1.3.3 3.5 2 4 3.6l8.2-.8c.8-.1 1.4.5 1.5 1.2l.3 3.8c.1.8-.5 1.4-1.2 1.5l-62.5 6.6c-.7.1-1.4-.5-1.5-1.3-.2-1.3 0-2.1-.4-3.4Z" fill="#FF9820" stroke="#1B383C" stroke-width="2" stroke-miterlimit="10"/><path d="M44.8002 31.1c.3 1.1.9 2.1 1.7 2.9.8.8 2 1.4 3 1 .4-.2.8-.5 1.1-.8 2-2 3.6-4.5 3.5-7.3-.1-2.6-2.8-6.7-5.8-5.5-2.9 1.3-4.2 7-3.5 9.7ZM60.8001 30.7c.3.9.6 1.7 1.3 2.3 1.2 1 2.9.9 4.4.4.5-.2 1.1-.4 1.5-.8.8-.7.9-1.9 1-2.9.2-2 .4-4.1-.1-6.1-.8-3.2-5.1-6.4-7.8-3-1.9 2.3-1.1 7.6-.3 10.1Z" fill="#fff" stroke="#1B383C" stroke-width="2" stroke-miterlimit="10"/><path d="M47.7001 27.7c.5-.5 1.3-.7 2-.7.6 0 1.2.1 1.6.5.5.4.6 1.1.6 1.8.1 1 .1 2.2-.5 2.9-.9 1-2.9 2.2-3.9 1-1-1.2-1-4.4.2-5.5ZM62.5003 30.6c-.3-1.3-.5-2.9.4-3.8.6-.5 1.4-.7 2.1-.7.6 0 1.3.1 1.8.4.7.4 1.1 1.2 1.3 2 .2.8.1 1.6.1 2.4 0 .2 0 .5-.1.7-.1.3-.4.5-.7.6-2.4 1.5-4.2 1.2-4.9-1.6Z" fill="#1B383C" stroke="#1B383C" stroke-width="2" stroke-miterlimit="10"/><path d="M30.4004 29.8c-5.6 4.5-9.7 10.7-11.6 17.6-1.9 6.9-1.6 14.4.8 21.1M89.1001 21.8C98.7001 27.6 106.4 36.5 110.6 47c4.2 10.5 4.9 22.2 1.9 33M49.7003 41.8c-.3 8.1-.1 16.3.7 24.4M66.4004 41.5c.3 8.5 1.3 16.9 2.9 25.3" stroke="#1B383C" stroke-width="2" stroke-miterlimit="10"/></svg>