<svg width="125" height="142" fill="none" xmlns="http://www.w3.org/2000/svg"><path d="M76.1152 119.464c.6 3.6 2.3 7.1 5.3 9 2 1.3 4.4 1.8 6.7 2.1 5.1.8 10.3 1.3 15.5998 1.3 4.2 0 8.3.6 12-2 2.3-1.6 4-4.2 4.7-6.9.4-1.7.5-3.5.4-5.3-.1-2.1-.3-4.3-.5-6.4-7.1-.9-14.7-.1-21.8998-.5-7.2-.4-14.4-1.1-21.6-1.9-.2 0-.5 0-.5.2s-.8 6.8-.2 10.4Z" fill="#D9D9D9" stroke="#1B383C" stroke-width="2" stroke-miterlimit="10"/><path d="M73.9151 105.664v-.3c0-.6.5-1 1.1-1l8.1.5v-.1c-.1-1 .8-1.8 1.7-2 .9-.2 1.9-.1 2.8.1 7.4 1.3 14.8999.4 22.3999.3 1.3 0 2.6 0 3.8.5.9.4 2.4 1.9 2.6 3.2l6.1.4c.6 0 1 .5 1 1.1l-.2 2.9c0 .6-.5 1-1.1 1l-47.4999-2.8c-.6 0-1-.5-.9-1.1 0-1.1.2-1.7.1-2.7Z" fill="#FF9820" stroke="#1B383C" stroke-width="2" stroke-miterlimit="10"/><path d="M63.0155 103.865c1.3 2.8 3.4 5.3 6.2 6.2 1.9.6 3.9.5 5.9.3 4.4-.4 8.7-1.2 13-2.2 3.4-.9 6.9-1.3 9.4-4.2 1.5-1.8 2.4-4.3004 2.4-6.7004 0-1.5-.4-3-.8-4.4-.5-1.7-1.2-3.4-1.8-5.1-6 .8-12 3.1001-18 4.3001-6 1.2-12 2.2-18 3-.2 0-.4.0999-.4.2999 0 .1.9 5.8004 2.1 8.5004Z" fill="#D9D9D9" stroke="#1B383C" stroke-width="2" stroke-miterlimit="10"/><path d="M58.3155 93.0648v-.2c-.1-.5.2-1 .7-1l6.7-1.3c-.3-.8.3-1.6 1-2 .7-.4 1.5-.4 2.3-.5 6.3-.5 12.3-2.9 18.4-4.6 1-.3 2.1-.6 3.2-.4.9.1 2.4 1.1 2.8001 2.1l5.0999-1c.5-.1.9001.2 1 .7l.4001 2.4c.1004.5-.2001.9-.7001 1l-39.4 7.9c-.5.1-.9-.2-1-.7-.3-1-.2-1.6-.5-2.4Z" fill="#FF9820" stroke="#1B383C" stroke-width="2" stroke-miterlimit="10"/><path d="M4.0156 123.064c.5 3.6 2.1 7.1 5 9.2 1.9 1.3 4.3 1.9 6.6 2.4 5.1 1 10.3 1.6 15.5 1.8 4.2.2 8.3.9 12.1-1.6 2.4-1.6 4.2-4 5-6.8.5-1.7.6-3.5.6-5.3 0-2.1-.2-4.3-.3-6.4-7-1.1-14.7-.6-21.9-1.2-7.2-.6-14.4-1.6-21.5-2.6-.2 0-.5 0-.6.2 0 .1-.9 6.7-.5 10.3Z" fill="#D9D9D9" stroke="#1B383C" stroke-width="2" stroke-miterlimit="10"/><path d="M2.3153 109.264v-.3c.1-.6.6-1 1.1-1l8.1.7v-.1c0-1 .9-1.8 1.8-2 .9-.2 1.9 0 2.8.2 7.3 1.5 14.9.9 22.4 1 1.3 0 2.6.1 3.8.6.9.4 2.3 2 2.5 3.3l6.1.6c.6 0 1 .6.9 1.1l-.3 2.9c-.1.6-.6 1-1.1 1l-47.5-4.3c-.6-.1-1-.6-.9-1.1.1-1 .4-1.6.3-2.6Z" fill="#FF9820" stroke="#1B383C" stroke-width="2" stroke-miterlimit="10"/><path d="M43.5151 131.565c1.3 3.4 3.7 6.4 7.1 7.7 2.2.8 4.6.8 7 .7 5.2-.3 10.4-.9 15.5-2 4.1-.9 8.3-1.1 11.3-4.5 1.9-2.1 3.1-4.9 3.2-7.8.1-1.8-.3-3.6-.7-5.3-.5-2.1-1.2-4.1-1.9-6.1-7.1.6-14.4 3-21.5 4.2-7.1 1.1-14.3 2-21.5 2.7-.2 0-.5.1-.5.3 0 0 .7 6.7 2 10.1Z" fill="#D9D9D9" stroke="#1B383C" stroke-width="2" stroke-miterlimit="10"/><path d="M38.5153 118.465v-.3c-.1-.6.3-1.1.9-1.2l8-1.2v-.1c-.3-.9.4-1.9 1.3-2.3.8-.4 1.8-.4 2.7-.5 7.5-.3 14.7-2.7 22-4.5 1.3-.3 2.5-.6 3.8-.3 1 .2 2.7 1.4 3.2 2.6l6.1-.9c.6-.1 1.1.3 1.2.9l.4 2.9c.1.6-.3 1.1-.9 1.2l-47 7.3c-.6.1-1.1-.3-1.2-.9-.3-1.1-.2-1.7-.5-2.7Z" fill="#FF9820" stroke="#1B383C" stroke-width="2" stroke-miterlimit="10"/><path d="M26.3154 103.164c.6 3.6 2.3 7.1 5.3 9 2 1.3 4.4 1.8 6.7 2.1 5.1.8 10.3 1.3 15.6 1.3 4.2 0 8.3.6 12-2 2.3-1.6 4-4.2 4.7-6.9.4-1.7.5-3.5.4-5.3-.1-2.0996-.3-4.2995-.5-6.3995-7.1-.9-14.7-.1-21.9-.5-7.2-.4-14.4-1.1-21.6-1.9-.2 0-.5 0-.5.2s-.8 6.9-.2 10.3995Z" fill="#D9D9D9" stroke="#1B383C" stroke-width="2" stroke-miterlimit="10"/><path d="M24.1153 89.3645v-.3c0-.6.5-1 1.1-1l8.1.5v-.1c-.1-1 .8-1.8 1.7-2 .9-.2 1.9-.1 2.8.1 7.4 1.3 14.9.4 22.4.3 1.3 0 2.6 0 3.8.5.9.4 2.4 1.9 2.6 3.2l6.1.4c.6 0 1 .5 1 1.1l-.2 2.9c0 .6-.5 1-1.1 1l-47.5-2.8c-.6 0-1-.5-.9-1.1 0-1.1.2-1.7.1-2.7Z" fill="#FF9820" stroke="#1B383C" stroke-width="2" stroke-miterlimit="10"/><rect x="46" width="40" height="73" rx="5" fill="#1C383C"/><rect x="48" y="4" width="36" height="64" rx="2" fill="#FF9820"/><rect x="51" y="30" width="30" height="12" rx="1" fill="#fff"/><path d="m57.2575 38-.7825-1.3975h-.385l-.1675-.0375.0725-.5v-.08h.5275c.1167 0 .21-.02.28-.06.0717-.04.1233-.0958.155-.1675.0317-.0733.0475-.1592.0475-.2575 0-.1217-.0217-.2133-.065-.275a.3176.3176 0 0 0-.1725-.125c-.07-.0233-.1483-.035-.235-.035l-.3975-.0025-.175-.2825-.04-.415h.715c.2333 0 .4383.0392.615.1175.1783.0783.3175.1967.4175.355.1.1583.15.3567.15.595 0 .185-.035.3583-.105.52-.07.16-.1792.2908-.3275.3925-.1483.1-.34.155-.575.165l.1-.04c.065 0 .125.0058.18.0175a.4271.4271 0 0 1 .1525.065c.0467.0317.0883.0767.125.135L58.195 38h-.9375Zm-1.9125 0v-3.635h.7925V38h-.7925Zm3.1934 0v-3.635h2.2275v.7175h-1.6875l.2425-.185V35.94l-.2425-.1575h1.52v.715h-1.495l.2175-.155v1.1225l-.2425-.1875h1.7325V38h-2.2725Zm4.2704.05c-.3033 0-.5791-.0733-.8275-.22-.2483-.1467-.4458-.36-.5925-.64-.1466-.2817-.22-.625-.22-1.03 0-.4.07-.7392.21-1.0175.1417-.2783.3359-.4892.5825-.6325.2467-.145.53-.2175.85-.2175.3134 0 .5934.0725.84.2175.2484.1433.4442.3542.5875.6325.145.2783.2175.6175.2175 1.0175 0 .405-.0716.7483-.215 1.03-.1433.28-.3391.4933-.5875.64-.2466.1467-.5283.22-.845.22Zm.545.74-.4175-.9075h.6175c.0384 0 .0825.01.1325.03.05.02.0917.0592.125.1175l.4375.76h-.895Zm-.545-1.485c.165 0 .3092-.0417.4325-.125.125-.0833.2225-.2092.2925-.3775.07-.1683.105-.38.105-.635 0-.2483-.035-.4558-.105-.6225-.07-.1683-.1675-.295-.2925-.38-.1233-.085-.2666-.1275-.43-.1275-.155 0-.295.0425-.42.1275-.125.085-.2241.2117-.2975.38-.0716.1667-.1075.3742-.1075.6225 0 .1917.0209.3592.0625.5025.0417.1417.1.26.175.355.075.0933.1617.1633.26.21.1.0467.2084.07.325.07Zm3.5349.745c-.2867 0-.5367-.0567-.75-.17-.2117-.115-.3767-.28-.495-.495-.1167-.2167-.175-.4767-.175-.78V34.36h.8025v2.1525c0 .14.0125.2617.0375.365.0266.1033.0658.19.1175.26a.4944.4944 0 0 0 .195.1525c.0783.0333.1691.05.2725.05.1016 0 .19-.0167.265-.05a.4585.4585 0 0 0 .19-.1525c.0516-.0683.09-.1542.115-.2575.0266-.105.04-.2275.04-.3675V34.365h.8025v2.24c0 .2983-.0584.5558-.175.7725-.1167.2167-.2809.3833-.4925.5-.2117.115-.4617.1725-.75.1725Zm2.0579-.05v-3.635h2.2275v.7175h-1.6875l.2425-.185V35.94l-.2425-.1575h1.52v.715h-1.495l.2175-.155v1.1225l-.2425-.1875h1.7325V38h-2.2725Zm4.0325.05c-.2783 0-.5291-.0433-.7525-.13-.2216-.0883-.395-.2242-.52-.4075-.125-.1833-.1825-.4175-.1725-.7025h.775c.0034.12.0284.2225.075.3075.0467.085.12.15.22.195.1.0433.23.065.39.065.13 0 .2367-.0133.32-.04.0834-.0267.1442-.0658.1825-.1175.04-.0533.06-.1183.06-.195 0-.085-.0266-.155-.08-.21-.0533-.0567-.1375-.1092-.2525-.1575-.1133-.0483-.26-.1033-.44-.165-.2233-.08-.4191-.17-.5875-.27-.1666-.1-.2958-.2225-.3875-.3675-.0916-.145-.1375-.3233-.1375-.535 0-.33.1142-.5808.3425-.7525.23-.1733.5417-.26.935-.26.2684 0 .4925.0425.6725.1275.18.0833.3175.2083.4125.375.0967.1667.1534.3733.17.62h-.76c-.0033-.0967-.0241-.1783-.0625-.245-.0366-.0667-.0908-.1175-.1625-.1525-.0716-.035-.1608-.0525-.2675-.0525-.1616 0-.285.0267-.37.08-.085.0517-.1275.1342-.1275.2475 0 .085.0192.1575.0575.2175.04.0583.1084.1133.205.165.0967.0517.2309.1092.4025.1725.16.0583.3134.1158.46.1725.1484.055.2809.1208.3975.1975.1167.075.2084.17.275.285.0684.115.1025.2617.1025.44.0017.3633-.1225.6367-.3725.82-.25.1817-.5841.2725-1.0025.2725Zm2.473-.05v-2.615c0-.1.0183-.1725.055-.2175.0366-.045.0925-.0733.1675-.085h-1.12v-.7175h2.585v.7175h-.8925V38h-.795Z" fill="#1C383C"/><rect x="55" width="22" height="8" rx="1" fill="#1C383C"/></svg>