<svg width="114" height="114" fill="none" xmlns="http://www.w3.org/2000/svg"><g clip-path="url(#a)" stroke="#1B383C" stroke-miterlimit="10"><path d="M99.7932 61.8182c-1.0395 7.1736-4.5045 14.3471-10.5683 18.4463-4.1581 2.7328-9.0092 3.7576-13.8602 4.7824-10.7417 2.0496-21.4833 3.2452-32.3982 3.7576-8.6626.3415-17.3252 1.8787-25.1216-3.2452-4.851-3.0744-8.4893-8.0276-10.0486-13.6639-1.0395-3.416-1.2128-7.0028-1.0395-10.5896 0-4.2699.5197-8.5399.8662-12.8099 14.7265-2.2204 30.6657-1.1956 45.5654-2.3912 15.0729-1.5372 29.9726-3.2452 44.8723-5.4655.3465 0 1.0395 0 1.2128.3416.1732.3416 1.7325 13.6639.5197 20.8374Z" fill="#D9D9D9" stroke-width="2"/><path d="M112.614 33.978c.347.6832.52 1.708.347 2.3912-.52 1.1956-1.906 1.708-3.119 2.0496-2.426.5124-5.198.854-5.198.854.174 1.1955-.693 2.2203-1.905 2.2203L3.8116 50.3747c-1.2128.1708-2.2523-.6832-2.2523-1.8788l-.693-5.8072c-.1732-1.1956.693-2.2204 1.9058-2.3912l12.8207-1.0247c.3465-2.562 3.2918-5.6364 5.1975-6.4904 2.4256-1.1956 5.1976-1.3664 7.9696-1.3664 15.5927-.1708 31.3587 1.0248 46.7781-2.0496 1.9058-.3416 3.8116-.854 5.7174-.3416 1.9057.3416 3.6383 2.0496 3.6383 3.9284v.1708l16.8053-1.5372c1.213-.1708 2.252.6832 2.252 1.8788v.5124c1.733-.5124 6.584-1.8788 7.277-1.5372.693.3416 1.213 1.0248 1.386 1.5372Z" fill="#FF9820" stroke-width="2"/><path d="M59.7723 51.5703c-1.5592 1.0248-2.4255 2.7328-2.5988 4.6116-.1732 1.8788.1733 3.5867.8663 5.2947.693 2.2204 1.9058 4.27 3.4651 6.1488 1.5592 1.708 3.8115 3.0744 5.8905 2.2204 1.2128-.5124 2.0791-1.708 2.4256-2.9036.3465-1.1956.3465-2.562.1732-3.9284-.5197-3.9284-4.3313-15.0303-10.2219-11.4435ZM42.2736 53.2783c-2.079.854-3.2918 3.2452-3.465 5.4655 0 2.2204.8663 4.4408 2.079 6.3196 1.0395 1.708 2.2523 3.416 3.9848 4.6116 1.7325 1.1956 3.9848 1.5372 5.8906.854.693-.3416 1.386-.6832 1.9058-1.3664.693-1.0248.8662-2.3912.693-3.5868-.3465-4.6116-4.3313-15.0303-11.0882-12.2975Z" fill="#fff" stroke-width="2"/><path d="M43.6597 58.9146c.5198 1.5372 1.5593 2.7328 2.5988 4.0992.8663 1.1956 1.9058 2.562 3.6383 3.0744.3465.1708.693.1708 1.2128 0 .5197-.1708.693-.854.693-1.1956.3465-2.3912 0-4.9532-1.0395-7.0027-.5198-1.1956-1.2128-2.3912-2.4256-3.2452-.8662-.6832-3.465-1.5372-4.6778-.5124-1.2127 1.0248-.3465 3.7576 0 4.7823ZM62.1976 52.7659c-.5198.854-.3465 1.8788-.1733 2.7327.693 3.2452 2.4256 6.4904 4.8511 8.8816.3465.3416 1.0395.6832 1.386.3416.1733-.1708.1733-.3416.1733-.5124.693-2.9036-.3465-5.978-1.2128-8.8816-.693-1.5371-3.2918-5.9779-5.0243-2.5619Z" fill="#1B383C"/><path d="M55.6143 75.8237c.3465 1.0248.693 1.8788 1.386 2.7328.693.6832 1.7325 1.3664 2.772 1.1956 1.0395 0 1.9058-.6832 2.4255-1.5372.5198-.854.693-1.8788.5198-2.9036M13.3404 60.6226c-.1732 4.6116-.1732 9.2232 1.9058 13.3223.5197 1.0248 1.2128 2.0496 2.079 3.0744 1.7325 2.2204 3.9848 4.0992 6.5836 5.124M76.058 35.5152c-8.3161 1.5372-16.8055 2.2204-25.2948 2.2204M35.6899 38.7603c.3465-.1708.6931-.1708.8663-.1708 1.7325 0 3.6383.1708 5.3708.1708" stroke-width="2"/></g><path d="M95.764 9.272a13.9524 13.9524 0 0 0-3.3584 3.3267 13.8344 13.8344 0 0 0-1.4791 2.6443 14.2814 14.2814 0 0 0-1.6312-2.8578l-.0039-.0053a9.766 9.766 0 0 0-3.3146-2.8204c1.2998-.7548 2.4121-1.8223 3.2632-2.9363l.0077-.01.0074-.0103a14.2375 14.2375 0 0 0 1.6099-2.869 17.9064 17.9064 0 0 0 2.5114 3.4915l.0103.0111.0106.0109c.6492.664 1.428 1.4404 2.3667 2.0246ZM42.3719 87.2053c-4.4389 2.5952-8.282 6.0966-11.2673 10.2819-2.5066 3.5138-4.3523 7.4318-5.4633 11.5648-1.1924-4.353-3.0837-8.537-5.87-12.1429-2.995-3.8757-7.0835-7.0543-11.7558-8.6964 4.6813-1.7633 8.7359-5.2945 11.6673-9.1426 2.618-3.4367 4.4177-7.3888 5.5847-11.5059.2493.7598.5546 1.5031.9143 2.2237l.0014.0027a47.7268 47.7268 0 0 0 7.4648 10.81l.0099.0109.0103.0105c2.4345 2.5027 5.2401 5.2178 8.7037 6.5833Z" fill="#FF9820" stroke="#1C383C" stroke-width="2"/><defs><clipPath id="a"><path fill="#fff" transform="translate(0 28)" d="M0 0h114v62H0z"/></clipPath></defs></svg>