<svg width="92" height="52" fill="none" xmlns="http://www.w3.org/2000/svg">
  <g clip-path="url(#a)">
    <path d="M52.509 42.933c-1.995 3.753-5.237 7.055-9.337 8.136-2.785.56-5.654.56-8.439 0a126.19 126.19 0 0 1-18.304-4.033c-4.818-1.461-9.756-2.272-13.027-6.545a14.143 14.143 0 0 1-2.873-9.467 22.518 22.518 0 0 1 1.466-6.085c.848-2.362 1.925-4.654 2.993-6.925 8.428 1.53 16.877 5.174 25.256 7.275a430.572 430.572 0 0 0 25.337 5.534c.24 0 .539.15.559.39.02.241-1.626 7.957-3.631 11.72Z" fill="#DADADA" stroke="#1C383C" stroke-width="1.5" stroke-miterlimit="10"/>
    <path d="M64.838 29.893c.08.49-.034.994-.32 1.4a2.272 2.272 0 0 1-2.104.521c-1.416-.19-2.992-.53-2.992-.53a1.241 1.241 0 0 1-1.487.91L2.414 18.384a1.247 1.247 0 0 1-.908-1.501l.818-3.293a1.222 1.222 0 0 1 1.014-.93c.161-.022.325-.012.482.03l7.153 1.78a6.073 6.073 0 0 1 4.1-2.651 11.548 11.548 0 0 1 4.518.82c8.529 2.843 16.888 6.486 25.806 7.696a8.269 8.269 0 0 1 3.221.881 2.51 2.51 0 0 1 1.257 2.862v.07l9.447 2.352a1.216 1.216 0 0 1 .926 1.017c.023.162.013.326-.029.484l-.07.32c.998 0 3.94.26 4.27.571.246.278.393.63.419 1Z" fill="#FF9820" stroke="#1C383C" stroke-width="1.5" stroke-miterlimit="10"/>
    <path d="M32.678 29.693a3.596 3.596 0 0 0-2.304 2.001 7.446 7.446 0 0 0-.578 3.133c-.023 1.37.228 2.731.738 4.003.498 1.2 1.526 2.392 2.813 2.312a2.508 2.508 0 0 0 1.835-1.111 5.453 5.453 0 0 0 .808-2.102c.469-2.262.618-9.177-3.312-8.236ZM22.813 27.33a3.506 3.506 0 0 0-1.772.78 3.524 3.524 0 0 0-1.09 1.602 7.339 7.339 0 0 0-.12 3.914 7.77 7.77 0 0 0 1.306 3.302 3.802 3.802 0 0 0 3.052 1.601c.46-.004.91-.147 1.287-.41.555-.49.93-1.153 1.068-1.881.668-2.652.468-9.148-3.731-8.907Z" fill="#fff" stroke="#1C383C" stroke-width="1.5" stroke-miterlimit="10"/>
    <path d="M22.524 30.663c.09.93.294 1.844.608 2.722a4.916 4.916 0 0 0 1.357 2.412c.162.161.38.254.608.26a.846.846 0 0 0 .639-.56 8.16 8.16 0 0 0 .808-4.123 4.263 4.263 0 0 0-.739-2.262c-.389-.52-1.596-1.501-2.433-1.131-.838.37-.878 2.042-.848 2.682ZM33.736 30.734a2.356 2.356 0 0 0-.639 1.521c-.252 1.995.095 4.02.998 5.814.13.25.409.55.668.41a.52.52 0 0 0 .19-.2 10.036 10.036 0 0 0 .997-5.143c-.04-.921-.569-3.883-2.214-2.402Z" fill="#1C383C" stroke="#1C383C" stroke-width="1.5" stroke-miterlimit="10"/>
    <path d="M25.796 42.322c-.01.584.087 1.164.289 1.712a2.002 2.002 0 0 0 1.227 1.19 1.82 1.82 0 0 0 1.616-.34c.436-.388.737-.908.857-1.48M5.676 25.95c-.908 2.502-1.846 5.114-1.506 7.746.102.716.275 1.42.518 2.102a9.49 9.49 0 0 0 2.654 4.083M44.589 23.798a82.567 82.567 0 0 1-14.185-3.523M22.015 18.014c.187.01.37.058.539.14l2.902 1.14" stroke="#1C383C" stroke-width="1.5" stroke-miterlimit="10"/>
    <path d="M65.506 22.517a3.229 3.229 0 0 0 1.725-.911 3.245 3.245 0 0 0 .889-1.74 7.537 7.537 0 0 0-.459-3.914 24.674 24.674 0 0 0-1.516-3.593c-.509-1-1.108-2.081-.818-3.162.29-1.08 1.506-1.821 2.633-2.322a126.768 126.768 0 0 1 13.088-5.204c1.645-.53 2.892.24 3.99 1.461a24.122 24.122 0 0 1 4.538 7.496 10.931 10.931 0 0 1 .689 6.495 3.137 3.137 0 0 1-1.826 2.372c-1.127.6-2.304 1.12-3.471 1.631l-6.913 3.002c-1.167.51-2.993 1.812-4.26 1.001a6.63 6.63 0 0 1-.977-1.11 4.981 4.981 0 0 0-3.102-1.522 25.232 25.232 0 0 0-4.21.02Z" fill="#fff" stroke="#1C383C" stroke-width="1.5" stroke-miterlimit="10"/>
    <path d="M75.102 15.672a3.892 3.892 0 0 1-2.294-3.002 2.619 2.619 0 0 1 .462-1.86 2.603 2.603 0 0 1 1.603-1.042 3.714 3.714 0 0 1 2.543 1 2.88 2.88 0 0 1 1.567-3.302 2.983 2.983 0 0 1 3.609 1.358c.229.408.36.865.38 1.334a16.778 16.778 0 0 1-.448 3.433 22.189 22.189 0 0 1-1.137 4.243c-.17.44-4.729-1.371-5.168-1.571-.438-.2-.758-.39-1.117-.59Z" fill="#E30613"/>
  </g>
  <defs>
    <clipPath id="a">
      <path fill="#fff" d="M0 0h92v52H0z"/>
    </clipPath>
  </defs>
</svg>
