<svg width="92" height="52" fill="none" xmlns="http://www.w3.org/2000/svg"><g clip-path="url(#a)"><path d="M56.7438 37.4499c-.962 4.14-3.2447 8.1656-6.9282 10.2651a21.3891 21.3891 0 0 1-8.1547 2.1719 126.1954 126.1954 0 0 1-18.7256.8135c-5.0317-.172-10.0116.3155-14.273-2.9718-2.6918-2.0817-4.5433-5.0686-5.2126-8.4091a22.5178 22.5178 0 0 1-.149-6.2571c.2115-2.5004.6627-4.9923 1.1094-7.4622 8.5391-.6896 17.6409.656 26.2786.5304 8.6377-.1256 17.254-.5251 25.9075-1.1728.2313-.0616.5591.0065.6402.2334.0811.227.4764 8.1066-.4926 12.2587Z" fill="#DADADA" stroke="#1C383C" stroke-width="1.5" stroke-miterlimit="10"/><path d="M65.3019 21.6764a1.906 1.906 0 0 1 .0521 1.436 2.2711 2.2711 0 0 1-.8175.7641 2.2674 2.2674 0 0 1-1.0824.2805c-1.4177.1808-3.0282.2576-3.0282.2576a1.2404 1.2404 0 0 1-.3414.8797 1.233 1.233 0 0 1-.8604.3828l-57.2053.9435a1.2472 1.2472 0 0 1-.88-.3492 1.2545 1.2545 0 0 1-.3835-.8678l-.057-3.3921a1.2224 1.2224 0 0 1 .3422-.8853 1.2156 1.2156 0 0 1 .3984-.2737 1.2146 1.2146 0 0 1 .4735-.0964l7.3696-.1193a6.0736 6.0736 0 0 1 1.2603-2.1547 6.0525 6.0525 0 0 1 2.0188-1.4631 11.5465 11.5465 0 0 1 4.5777-.37c8.9729.5515 17.9879 1.9203 26.9169.7954a8.2694 8.2694 0 0 1 3.3401.0218 2.4988 2.4988 0 0 1 1.4024.8784c.3547.444.5482.9956.5487 1.5639l.018.0677 9.7335-.1585a1.2174 1.2174 0 0 1 .8833.3446 1.2245 1.2245 0 0 1 .3705.8749l.015.3275c.9639-.2567 3.8744-.7626 4.2723-.5476.3093.2053.5423.5075.6624.8593Z" fill="#F49825" stroke="#1C383C" stroke-width="1.5" stroke-miterlimit="10"/><path d="M34.1739 29.7599a3.5986 3.5986 0 0 0-1.1358 1.0726 3.6104 3.6104 0 0 0-.5757 1.4546 7.4462 7.4462 0 0 0 .2471 3.1758 10.2959 10.2959 0 0 0 1.7435 3.6782c.791 1.0322 2.0903 1.9185 3.3132 1.51a2.509 2.509 0 0 0 .9166-.6056 2.5185 2.5185 0 0 0 .5711-.9402 5.455 5.455 0 0 0 .2398-2.2388c-.129-2.3062-1.7641-9.0271-5.3198-7.1066ZM24.0333 30.0159a3.505 3.505 0 0 0-1.5113 1.209 3.523 3.523 0 0 0-.6421 1.8293 7.3387 7.3387 0 0 0 .8913 3.8121 7.771 7.771 0 0 0 2.1127 2.855 3.8054 3.8054 0 0 0 1.5905.7845 3.79 3.79 0 0 0 1.7712-.0228 2.2889 2.2889 0 0 0 1.1378-.7277 3.3354 3.3354 0 0 0 .5472-2.0927c-.0368-2.7347-1.9011-8.9596-5.8973-7.6467Z" fill="#fff" stroke="#1C383C" stroke-width="1.5" stroke-miterlimit="10"/><path d="M24.6111 34.3105a11.3017 11.3017 0 0 0 1.2886 2.4738 4.9176 4.9176 0 0 0 1.9316 1.9814.896.896 0 0 0 .6549.0949.8467.8467 0 0 0 .3308-.2892.8512.8512 0 0 0 .1419-.4167 8.158 8.158 0 0 0-.2804-4.1922 4.2633 4.2633 0 0 0-1.2953-1.9956c-.5099-.4027-1.9286-1.0398-2.643-.4664-.7144.5735-.3228 2.1987-.1291 2.81ZM35.4638 31.4932a2.3552 2.3552 0 0 0-.2254 1.6342 10.116 10.116 0 0 0 2.4603 5.3619c.1897.2084.5369.4267.7514.2245a.5187.5187 0 0 0 .1316-.2422 10.0357 10.0357 0 0 0-.3599-5.2274c-.2755-.8794-1.5487-3.6058-2.758-1.751Z" fill="#1C383C" stroke="#1C383C" stroke-width="1.5" stroke-miterlimit="10"/><path d="M30.7736 43.7352a4.7188 4.7188 0 0 0 .72 1.5792 2.002 2.002 0 0 0 .6528.5855c.258.1444.5447.2296.8393.2495a1.8188 1.8188 0 0 0 .826-.1955 1.823 1.823 0 0 0 .648-.5492c.322-.488.479-1.0671.4477-1.652M7.1178 33.0926c-.2332 2.6513-.467 5.4166.538 7.8727a10.786 10.786 0 0 0 1.0422 1.8973 9.4905 9.4905 0 0 0 3.6148 3.2628M44.1661 20.9981a82.5603 82.5603 0 0 1-14.6134.2465M20.8643 21.2183a1.4336 1.4336 0 0 1 .5565-.0034l3.0984.3546" stroke="#1C383C" stroke-width="1.5" stroke-miterlimit="10"/><path d="M64.5066 22.5172a3.2281 3.2281 0 0 0 1.7248-.9113 3.2456 3.2456 0 0 0 .8887-1.7407 7.5392 7.5392 0 0 0-.4588-3.913 24.686 24.686 0 0 0-1.5163-3.5928c-.5087-1.0007-1.1072-2.0816-.8179-3.1624s1.5062-1.8214 2.6334-2.3218a126.7589 126.7589 0 0 1 13.0873-5.204c1.6459-.5304 2.8928.2402 3.99 1.4611a24.1237 24.1237 0 0 1 4.5387 7.4958 10.9313 10.9313 0 0 1 .6882 6.495 3.138 3.138 0 0 1-.6116 1.4191 3.1238 3.1238 0 0 1-1.2138.9527c-1.1272.6005-2.3042 1.1209-3.4713 1.6313l-6.9127 3.0023c-1.1671.5104-2.9925 1.8114-4.2594 1.0007a6.6242 6.6242 0 0 1-.9775-1.1108 4.9814 4.9814 0 0 0-3.1023-1.5212 25.2324 25.2324 0 0 0-4.2095.02Z" fill="#fff" stroke="#1C383C" stroke-width="1.5" stroke-miterlimit="10"/><path d="M74.1023 15.6721a3.8925 3.8925 0 0 1-1.5339-1.2036 3.9097 3.9097 0 0 1-.7603-1.7987 2.6185 2.6185 0 0 1 .462-1.8596 2.603 2.603 0 0 1 1.6028-1.0426 3.7144 3.7144 0 0 1 2.5437 1.0007 2.8804 2.8804 0 0 1 .1914-1.9336 2.8674 2.8674 0 0 1 1.3746-1.369 2.9836 2.9836 0 0 1 2.6707.3382c.3878.2618.7092.611.9384 1.0198a3.01 3.01 0 0 1 .381 1.3342 16.7917 16.7917 0 0 1-.4489 3.4326 22.1962 22.1962 0 0 1-1.1372 4.2433c-.1695.4403-4.7281-1.3711-5.167-1.5712-.4389-.2002-.7582-.3903-1.1173-.5905Z" fill="#E30613"/></g><defs><clipPath id="a"><path fill="#fff" d="M0 0h92v52H0z"/></clipPath></defs></svg>