<svg width="199" height="111" fill="none" xmlns="http://www.w3.org/2000/svg"><path d="M173.959 60.3305c-2.112 12.6761-8.144 25.3523-18.701 32.2939-7.238 4.829-15.683 6.6399-24.129 8.4506-18.7 3.622-37.4 5.735-56.4017 6.64-15.0807.604-30.1615 3.32-43.7342-5.734-8.4452-5.433-14.7791-14.1855-17.4936-24.1454-1.8097-6.0362-2.1113-12.3743-1.8097-18.7123 0-7.5454.9048-15.0907 1.5081-22.636 25.6372-3.9235 53.3858-2.1127 79.3247-4.2254 26.2404-2.4145 52.1794-5.4326 78.1184-9.3561.603 0 1.81 0 2.111.6036.603.6036 3.318 24.145 1.207 36.8211Z" fill="#D9D9D9" stroke="#1B383C" stroke-width="4" stroke-miterlimit="10"/><path d="M196.278 10.8338c.604 1.2072.905 3.0181.604 4.2254-.905 2.1127-3.318 3.0181-5.429 3.6217-4.223.9054-9.049 1.5091-9.049 1.5091.302 2.1127-1.206 3.9235-3.318 3.9235L6.8643 39.506c-2.1113.3018-3.921-1.2073-3.921-3.32l-.9049-10.2616c-.3016-2.1127 1.2065-3.9235 3.3178-3.9235L27.3741 20.19c.6032-4.5272 5.7307-9.9598 9.0484-11.4689 4.2226-1.8109 9.0485-2.1127 13.5727-2.1127 27.1453-.3018 54.5928 1.8109 81.4358-3.6217 3.318-.6037 6.636-1.509 9.954-.6037 3.317.6037 6.333 3.6218 6.333 6.9417v.3018l29.257-2.7163c2.111-.3018 3.921 1.2073 3.921 3.32v.9054c3.016-.9054 11.461-3.32 12.668-2.7163 1.508.6036 2.413 1.509 2.714 2.4145Z" fill="#FF9820" stroke="#1B383C" stroke-width="4" stroke-miterlimit="10"/><path d="M104.286 42.2223c-2.715 1.8109-4.223 4.829-4.5246 8.1489-.3016 3.3199.3016 6.3381 1.5086 9.3562 1.206 3.9236 3.317 7.5453 6.032 10.8652 2.714 3.0182 6.635 5.4327 10.255 3.9236 2.111-.9054 3.619-3.0181 4.222-5.1308.604-2.1127.604-4.5272.302-6.9417-.905-6.9417-7.54-26.8613-17.795-20.2214ZM73.8231 45.2411c-3.6194 1.509-5.7307 5.7344-6.0323 9.658-.3016 3.9235 1.5081 7.8471 3.6194 11.1671 1.8097 3.0181 3.921 6.0362 6.9371 8.1489 3.0162 2.1127 6.9372 2.7163 10.255 1.5091 1.2064-.6037 2.4129-1.2073 3.3177-2.4145 1.2065-1.8109 1.5081-4.2254 1.2065-6.3381-.6032-8.4508-7.5404-26.5595-19.3034-21.7305Z" fill="#fff" stroke="#1B383C" stroke-width="4" stroke-miterlimit="10"/><path d="M76.2357 54.898c.9049 2.7163 2.7146 4.829 4.5243 7.2435 1.508 2.1127 3.3177 4.5272 6.3339 5.4327.6032.3018 1.2064.3018 2.1113 0 .9048-.3019 1.2064-1.5091 1.2064-2.1128.6033-4.2253 0-8.7525-1.8097-12.3743-.9048-2.1127-2.1113-4.2254-4.2226-5.7344-1.508-1.2073-6.0323-2.7163-8.1436-.9054-2.1113 1.8108-.6032 6.6398 0 8.4507ZM108.509 44.0338c-.905 1.5091-.604 3.32-.302 4.829 1.206 5.7345 4.222 11.4689 8.445 15.6943.603.6036 1.81 1.2072 2.413.6036.302-.3018.302-.6036.302-.9054 1.206-5.1308-.604-10.5635-2.112-15.6943-1.206-2.4145-5.73-10.2616-8.746-4.5272Z" fill="#1B383C" stroke="#1B383C" stroke-miterlimit="10"/><path d="M97.0469 85.0792c.6032 1.8109 1.2064 3.32 2.4129 4.829 1.2062 1.2073 3.0162 2.4145 4.8262 2.1127 1.809 0 3.317-1.2072 4.222-2.7163.905-1.509 1.207-3.3199.905-5.1308M23.453 58.2188c-.3016 8.1489-.3016 16.2978 3.3178 23.5413.9048 1.8109 2.1113 3.6217 3.6193 5.4326 3.0162 3.9236 6.9372 7.2435 11.4614 9.0544M132.638 13.5508c-14.478 2.7163-29.257 3.9236-44.0359 3.9236M62.3613 19.2842c.6033-.3018 1.2065-.3018 1.5081-.3018 3.0162 0 6.3339.3018 9.3501.3018" stroke="#1B383C" stroke-width="4" stroke-miterlimit="10"/></svg>