<svg width="312" height="197" viewBox="0 0 312 197" fill="none" xmlns="http://www.w3.org/2000/svg">
<path d="M20.2833 63.5849C0.38308 102.209 2.0334 151.743 2.0334 194C5.45127 192.894 13.0593 188.323 15.0986 185.849C18.2729 181.998 30.9141 182.952 35.6298 180.918C50.354 174.567 71.7265 177.698 87.8907 177.698H135.486C153.982 177.698 172.537 181.321 190.961 181.321C212.908 181.321 234.97 181.947 256.909 181.321C264.284 181.11 276.908 177.619 282.936 173.069C288.252 169.057 294.674 168.823 299.631 164.013C309.145 154.779 310 136.001 310 123.358V78.8805C310 62.2035 306.328 46.6643 297.868 31.8868C290.525 19.0596 277.272 14.9386 262.924 10.6541C242.018 4.41167 221.5 2 199.464 2H153.113C137.883 2 123.519 5.62264 108.422 5.62264C98.5966 5.62264 86.5795 9.74158 77.1067 12.4654C66.1291 15.6219 56.5309 18.5886 46.8285 24.6415C32.2654 33.727 27.5577 49.466 20.2833 63.5849Z" stroke="#1C383C" stroke-width="3" stroke-linecap="round"/>
</svg>
