<svg width="484" height="150" fill="none" xmlns="http://www.w3.org/2000/svg"><path d="M16.8761 74.5522c1.7124-14.3999.3211-29.7817 7.1706-42.4361C34.5349 12.698 59.3641 7.8981 80.9827 5.9344c72.6683-6.3272 145.7653-3.709 218.6473-1.2 41.846 1.5273 82.514.6546 123.504 10.5818 17.766 4.2545 36.495 10.7999 47.09 25.8543 6.528 9.2727 9.204 20.7272 10.809 32.0726 4.495 32.0729-6.528 47.0179-36.387 55.3089-22.047 6.109-44.629 9.709-67.318 12.436-60.574 7.309-121.577 8.182-182.473 5.891-30.074-1.091-60.04-3.055-90.113-5.345-13.9132-1.091-27.8262-2.837-41.7391-3.6-11.4514-.655-23.1169.545-33.07-6.655-6.1003-4.473-8.6688-10.909-13.0568-16.8-1.7123-2.182-4.1738-4.254-6.4213-5.782-.9548-.648-8.1337-4.69-8.4548-4.254 7.5986-9.3819 13.3778-17.4546 14.8761-29.8908Z" fill="#fff" stroke="#1B383C" stroke-width="3" stroke-miterlimit="10" stroke-linejoin="round"/></svg>