<svg width="180" height="93" fill="none" xmlns="http://www.w3.org/2000/svg"><path d="M8.49 45.25C10 51 8.57 56.92 8.3 62.78c-.27 5.86 1 12.29 6.54 16.28 4.56 3.26 11.07 4.22 17.24 4.78 17 1.53 34.11 1.06 51.17.49 8.56-.29 18.55-1.23 22.88-7 2.32-3.07 2.37-6.82 2.36-10.37-.04-8-.073-16-.1-24-33.1.04-66.85.86-99.9 2.29ZM144.31 1h-8.71a5.18 5.18 0 0 0-5.18 5.18v80.24a5.18 5.18 0 0 0 5.18 5.18h8.71a5.18 5.18 0 0 0 5.18-5.18V6.18A5.18 5.18 0 0 0 144.31 1Z" fill="#D9D9D9" stroke="#1B383C" stroke-width="2" stroke-miterlimit="10"/><path d="M172.92 46.3h-8.71a5.18 5.18 0 0 0-5.18 5.18v34.94a5.18 5.18 0 0 0 5.18 5.18h8.71a5.18 5.18 0 0 0 5.18-5.18V51.48a5.18 5.18 0 0 0-5.18-5.18Z" fill="#FF9820" stroke="#1B383C" stroke-width="2" stroke-miterlimit="10"/><path d="M144.55 14.65c5.82-2 12.61-3.87 17.79-.55 3.09 2 4.89 5.44 6.06 8.92a38.908 38.908 0 0 1 2 11.77" stroke="#1B383C" stroke-width="2" stroke-miterlimit="10" stroke-linecap="round"/><path d="M165.26 31a9.58 9.58 0 0 1 5.15 3.3c1.34-1.46 2.61-3 3.8-4.55" stroke="#1B383C" stroke-width="2" stroke-miterlimit="10" stroke-linecap="round"/><path d="M59.71 65.5a5.48 5.48 0 0 0 2.24 3c1.6.84 3.57.12 5-1 3.67-3 4.76-8.41 4.21-13.24a4.25 4.25 0 0 0-.49-1.77c-1.86-3-7.41-2.67-9.44-.29-2.92 3.33-3.06 9.31-1.52 13.3Z" fill="#fff" stroke="#1B383C" stroke-width="2" stroke-miterlimit="10" stroke-linecap="round"/><path d="M63 59a7 7 0 0 0 .85 4.15 3.06 3.06 0 0 0 3.56 1.41c1.35-.56 1.92-2.2 2.34-3.66.68-2.38 2.38-7.11-.87-8.31C65.15 51.22 63.1 56.05 63 59Z" fill="#1B383C" stroke="#1B383C" stroke-width="2" stroke-miterlimit="10"/><path d="M78.53 54.41c-1.4 2.59-1.44 5.68-1.21 8.59a7.52 7.52 0 0 0 .92 3.51 4.79 4.79 0 0 0 5.55 1.63 7.719 7.719 0 0 0 4.26-4.35 20.34 20.34 0 0 0 1.3-6.14 9 9 0 0 0-.35-4.56c-2.11-4.59-8.67-2.03-10.47 1.32Z" fill="#fff" stroke="#1B383C" stroke-width="2" stroke-miterlimit="10" stroke-linecap="round"/><path d="M82.42 57.13a6.25 6.25 0 0 0-.15 4.24 3.32 3.32 0 0 0 3.31 2.24A3.46 3.46 0 0 0 88 61.84a8.32 8.32 0 0 0 .87-3c.121-.842.198-1.69.23-2.54.22-5.75-5.51-2.55-6.68.83Z" fill="#1B383C" stroke="#1B383C" stroke-width="2" stroke-miterlimit="10"/><path d="M52.11 72.23a5.5 5.5 0 0 0 8.42 5" stroke="#1B383C" stroke-width="2" stroke-miterlimit="10"/><path d="M114.26 41c-1.28 1.23-3.26 1.29-5 1.27-4 0-8 .19-12 .05-25.56-.88-51.14.75-76.64 2.82-6.23.5-12.7 1-18.57-1.14-1.84-1.69-.86-5 1.23-6.39 2.09-1.39 4.72-1.33 7.19-1.29 5.7.09 11.4.09 17.1.07-.65-1.54-.37-3.41-.36-5.6a2.35 2.35 0 0 1 .4-1.59 2.31 2.31 0 0 1 1.74-.54c7.1-.22 14.21 0 21.31.16l21.15.58 15.46.41a11.38 11.38 0 0 1 4.27.67A4.15 4.15 0 0 1 94 33.09c3.6-.207 7.18-.377 10.74-.51 2.78-.1 5.76-.14 8.1 1.35 2.34 1.49 3.43 5.17 1.42 7.07Z" fill="#FF9820" stroke="#1B383C" stroke-width="2" stroke-miterlimit="10"/><path d="M36.39 36.73a285.58 285.58 0 0 0 16-.77" stroke="#1B383C" stroke-width="2" stroke-miterlimit="10"/></svg>