<?xml version="1.0" encoding="UTF-8"?>
<svg id="Layer_1" data-name="Layer 1" xmlns="http://www.w3.org/2000/svg" viewBox="0 0 418.95 18.88">
  <defs>
    <style>
      .cls-1 {
        fill: #b0882e;
      }

      .cls-2 {
        fill: #0a5b79;
      }
    </style>
  </defs>
  <g>
    <path class="cls-1" d="M418.82,10.19c-.94,5.28-5.32,8.51-10.03,8.68-.99,.05-2-.05-3-.29,1.16-.05,2.13-.22,3-.57,.51-.22,.99-.5,1.44-.85,2.2-1.73,3-4.87,1.88-7.4-1.23-2.77-4.56-3.51-6.88-1.55-.28,.24-.44,.63-.85,.73h.01c.34-2.7,3.11-5.31,6.06-5.73,1.15-.17,2.28-.17,3.39,.18,.66,.21,.85-.02,.84-.71-.01-.89,.01-1.79-.46-2.67,2.9,.61,5.32,6.16,4.6,10.19Z"/>
    <path class="cls-2" d="M395.1,7.43c1.94-5,6.86-7.33,11.52-6.58,.98,.14,1.95,.43,2.89,.87-1.15-.18-2.14-.2-3.05-.02-.55,.12-1.07,.3-1.58,.56-2.49,1.28-3.88,4.2-3.27,6.9,.67,2.95,3.8,4.33,6.45,2.85,.32-.19,.55-.54,.98-.55h-.01c-.85,2.58-4.07,4.6-7.05,4.45-1.16-.05-2.27-.27-3.29-.83-.61-.33-.84-.14-.96,.53-.16,.88-.36,1.76-.06,2.71-2.73-1.16-4.03-7.07-2.54-10.88Z"/>
  </g>
  <g>
    <path class="cls-1" d="M390.64,10.19c-.94,5.28-5.32,8.51-10.03,8.68-.99,.05-2-.05-3-.29,1.16-.05,2.13-.22,3-.57,.51-.22,.99-.5,1.44-.85,2.2-1.73,3-4.87,1.88-7.4-1.23-2.77-4.56-3.51-6.88-1.55-.28,.24-.44,.63-.85,.73h.01c.34-2.7,3.11-5.31,6.06-5.73,1.15-.17,2.28-.17,3.39,.18,.66,.21,.85-.02,.84-.71-.01-.89,.01-1.79-.46-2.67,2.9,.61,5.32,6.16,4.6,10.19Z"/>
    <path class="cls-2" d="M366.92,7.43c1.94-5,6.86-7.33,11.52-6.58,.98,.14,1.95,.43,2.89,.87-1.15-.18-2.14-.2-3.05-.02-.55,.12-1.07,.3-1.58,.56-2.49,1.28-3.88,4.2-3.27,6.9,.67,2.95,3.8,4.33,6.45,2.85,.32-.19,.55-.54,.98-.55h-.01c-.85,2.58-4.07,4.6-7.05,4.45-1.16-.05-2.27-.27-3.29-.83-.61-.33-.84-.14-.96,.53-.16,.88-.36,1.76-.06,2.71-2.73-1.16-4.03-7.07-2.54-10.88Z"/>
  </g>
  <g>
    <path class="cls-1" d="M362.47,10.19c-.94,5.28-5.32,8.51-10.03,8.68-.99,.05-2-.05-3-.29,1.16-.05,2.13-.22,3-.57,.51-.22,.99-.5,1.44-.85,2.2-1.73,3-4.87,1.88-7.4-1.23-2.77-4.56-3.51-6.88-1.55-.28,.24-.44,.63-.85,.73h.01c.34-2.7,3.11-5.31,6.06-5.73,1.15-.17,2.28-.17,3.39,.18,.66,.21,.85-.02,.84-.71-.01-.89,.01-1.79-.46-2.67,2.9,.61,5.32,6.16,4.6,10.19Z"/>
    <path class="cls-2" d="M338.74,7.43c1.94-5,6.86-7.33,11.52-6.58,.98,.14,1.95,.43,2.89,.87-1.15-.18-2.14-.2-3.05-.02-.55,.12-1.07,.3-1.58,.56-2.49,1.28-3.88,4.2-3.27,6.9,.67,2.95,3.8,4.33,6.45,2.85,.32-.19,.55-.54,.98-.55h-.01c-.85,2.58-4.07,4.6-7.05,4.45-1.16-.05-2.27-.27-3.29-.83-.61-.33-.84-.14-.96,.53-.16,.88-.36,1.76-.06,2.71-2.73-1.16-4.03-7.07-2.54-10.88Z"/>
  </g>
  <g>
    <path class="cls-1" d="M334.29,10.19c-.94,5.28-5.32,8.51-10.03,8.68-.99,.05-2-.05-3-.29,1.16-.05,2.13-.22,3-.57,.51-.22,.99-.5,1.44-.85,2.2-1.73,3-4.87,1.88-7.4-1.23-2.77-4.56-3.51-6.88-1.55-.28,.24-.44,.63-.85,.73h.01c.34-2.7,3.11-5.31,6.06-5.73,1.15-.17,2.28-.17,3.39,.18,.66,.21,.85-.02,.84-.71-.01-.89,.01-1.79-.46-2.67,2.9,.61,5.32,6.16,4.6,10.19Z"/>
    <path class="cls-2" d="M310.57,7.43c1.94-5,6.86-7.33,11.52-6.58,.98,.14,1.95,.43,2.89,.87-1.15-.18-2.14-.2-3.05-.02-.55,.12-1.07,.3-1.58,.56-2.49,1.28-3.88,4.2-3.27,6.9,.67,2.95,3.8,4.33,6.45,2.85,.32-.19,.55-.54,.98-.55h-.01c-.85,2.58-4.07,4.6-7.05,4.45-1.16-.05-2.27-.27-3.29-.83-.61-.33-.84-.14-.96,.53-.16,.88-.36,1.76-.06,2.71-2.73-1.16-4.03-7.07-2.54-10.88Z"/>
  </g>
  <g>
    <path class="cls-1" d="M306.11,10.19c-.94,5.28-5.32,8.51-10.03,8.68-.99,.05-2-.05-3-.29,1.16-.05,2.13-.22,3-.57,.51-.22,.99-.5,1.44-.85,2.2-1.73,3-4.87,1.88-7.4-1.23-2.77-4.56-3.51-6.88-1.55-.28,.24-.44,.63-.85,.73h.01c.34-2.7,3.11-5.31,6.06-5.73,1.15-.17,2.28-.17,3.39,.18,.66,.21,.85-.02,.84-.71-.01-.89,.01-1.79-.46-2.67,2.9,.61,5.32,6.16,4.6,10.19Z"/>
    <path class="cls-2" d="M282.39,7.43c1.94-5,6.86-7.33,11.52-6.58,.98,.14,1.95,.43,2.89,.87-1.15-.18-2.14-.2-3.05-.02-.55,.12-1.07,.3-1.58,.56-2.49,1.28-3.88,4.2-3.27,6.9,.67,2.95,3.8,4.33,6.45,2.85,.32-.19,.55-.54,.98-.55h-.01c-.85,2.58-4.07,4.6-7.05,4.45-1.16-.05-2.27-.27-3.29-.83-.61-.33-.84-.14-.96,.53-.16,.88-.36,1.76-.06,2.71-2.73-1.16-4.03-7.07-2.54-10.88Z"/>
  </g>
  <g>
    <path class="cls-1" d="M277.93,10.19c-.94,5.28-5.32,8.51-10.03,8.68-.99,.05-2-.05-3-.29,1.16-.05,2.13-.22,3-.57,.51-.22,.99-.5,1.44-.85,2.2-1.73,3-4.87,1.88-7.4-1.23-2.77-4.56-3.51-6.88-1.55-.28,.24-.44,.63-.85,.73h.01c.34-2.7,3.11-5.31,6.06-5.73,1.15-.17,2.28-.17,3.39,.18,.66,.21,.85-.02,.84-.71-.01-.89,.01-1.79-.46-2.67,2.9,.61,5.32,6.16,4.6,10.19Z"/>
    <path class="cls-2" d="M254.21,7.43c1.94-5,6.86-7.33,11.52-6.58,.98,.14,1.95,.43,2.89,.87-1.15-.18-2.14-.2-3.05-.02-.55,.12-1.07,.3-1.58,.56-2.49,1.28-3.88,4.2-3.27,6.9,.67,2.95,3.8,4.33,6.45,2.85,.32-.19,.55-.54,.98-.55h-.01c-.85,2.58-4.07,4.6-7.05,4.45-1.16-.05-2.27-.27-3.29-.83-.61-.33-.84-.14-.96,.53-.16,.88-.36,1.76-.06,2.71-2.73-1.16-4.03-7.07-2.54-10.88Z"/>
  </g>
  <g>
    <path class="cls-1" d="M249.76,10.19c-.94,5.28-5.32,8.51-10.03,8.68-.99,.05-2-.05-3-.29,1.16-.05,2.13-.22,3-.57,.51-.22,.99-.5,1.44-.85,2.2-1.73,3-4.87,1.88-7.4-1.23-2.77-4.56-3.51-6.88-1.55-.28,.24-.44,.63-.85,.73h.01c.34-2.7,3.11-5.31,6.06-5.73,1.15-.17,2.28-.17,3.39,.18,.66,.21,.85-.02,.84-.71-.01-.89,.01-1.79-.46-2.67,2.9,.61,5.32,6.16,4.6,10.19Z"/>
    <path class="cls-2" d="M226.04,7.43c1.94-5,6.86-7.33,11.52-6.58,.98,.14,1.95,.43,2.89,.87-1.15-.18-2.14-.2-3.05-.02-.55,.12-1.07,.3-1.58,.56-2.49,1.28-3.88,4.2-3.27,6.9,.67,2.95,3.8,4.33,6.45,2.85,.32-.19,.55-.54,.98-.55h-.01c-.85,2.58-4.07,4.6-7.05,4.45-1.16-.05-2.27-.27-3.29-.83-.61-.33-.84-.14-.96,.53-.16,.88-.36,1.76-.06,2.71-2.73-1.16-4.03-7.07-2.54-10.88Z"/>
  </g>
  <g>
    <path class="cls-1" d="M221.58,10.19c-.94,5.28-5.32,8.51-10.03,8.68-.99,.05-2-.05-3-.29,1.16-.05,2.13-.22,3-.57,.51-.22,.99-.5,1.44-.85,2.2-1.73,3-4.87,1.88-7.4-1.23-2.77-4.56-3.51-6.88-1.55-.28,.24-.44,.63-.85,.73h.01c.34-2.7,3.11-5.31,6.06-5.73,1.15-.17,2.28-.17,3.39,.18,.66,.21,.85-.02,.84-.71-.01-.89,.01-1.79-.46-2.67,2.9,.61,5.32,6.16,4.6,10.19Z"/>
    <path class="cls-2" d="M197.86,7.43c1.94-5,6.86-7.33,11.52-6.58,.98,.14,1.95,.43,2.89,.87-1.15-.18-2.14-.2-3.05-.02-.55,.12-1.07,.3-1.58,.56-2.49,1.28-3.88,4.2-3.27,6.9,.67,2.95,3.8,4.33,6.45,2.85,.32-.19,.55-.54,.98-.55h-.01c-.85,2.58-4.07,4.6-7.05,4.45-1.16-.05-2.27-.27-3.29-.83-.61-.33-.84-.14-.96,.53-.16,.88-.36,1.76-.06,2.71-2.73-1.16-4.03-7.07-2.54-10.88Z"/>
  </g>
  <g>
    <path class="cls-1" d="M193.4,10.19c-.94,5.28-5.32,8.51-10.03,8.68-.99,.05-2-.05-3-.29,1.16-.05,2.13-.22,3-.57,.51-.22,.99-.5,1.44-.85,2.2-1.73,3-4.87,1.88-7.4-1.23-2.77-4.56-3.51-6.88-1.55-.28,.24-.44,.63-.85,.73h.01c.34-2.7,3.11-5.31,6.06-5.73,1.15-.17,2.28-.17,3.39,.18,.66,.21,.85-.02,.84-.71-.01-.89,.01-1.79-.46-2.67,2.9,.61,5.32,6.16,4.6,10.19Z"/>
    <path class="cls-2" d="M169.68,7.43c1.94-5,6.86-7.33,11.52-6.58,.98,.14,1.95,.43,2.89,.87-1.15-.18-2.14-.2-3.05-.02-.55,.12-1.07,.3-1.58,.56-2.49,1.28-3.88,4.2-3.27,6.9,.67,2.95,3.8,4.33,6.45,2.85,.32-.19,.55-.54,.98-.55h-.01c-.85,2.58-4.07,4.6-7.05,4.45-1.16-.05-2.27-.27-3.29-.83-.61-.33-.84-.14-.96,.53-.16,.88-.36,1.76-.06,2.71-2.73-1.16-4.03-7.07-2.54-10.88Z"/>
  </g>
  <g>
    <path class="cls-1" d="M165.23,10.19c-.94,5.28-5.32,8.51-10.03,8.68-.99,.05-2-.05-3-.29,1.16-.05,2.13-.22,3-.57,.51-.22,.99-.5,1.44-.85,2.2-1.73,3-4.87,1.88-7.4-1.23-2.77-4.56-3.51-6.88-1.55-.28,.24-.44,.63-.85,.73h.01c.34-2.7,3.11-5.31,6.06-5.73,1.15-.17,2.28-.17,3.39,.18,.66,.21,.85-.02,.84-.71-.01-.89,.01-1.79-.46-2.67,2.9,.61,5.32,6.16,4.6,10.19Z"/>
    <path class="cls-2" d="M141.51,7.43c1.94-5,6.86-7.33,11.52-6.58,.98,.14,1.95,.43,2.89,.87-1.15-.18-2.14-.2-3.05-.02-.55,.12-1.07,.3-1.58,.56-2.49,1.28-3.88,4.2-3.27,6.9,.67,2.95,3.8,4.33,6.45,2.85,.32-.19,.55-.54,.98-.55h-.01c-.85,2.58-4.07,4.6-7.05,4.45-1.16-.05-2.27-.27-3.29-.83-.61-.33-.84-.14-.96,.53-.16,.88-.36,1.76-.06,2.71-2.73-1.16-4.03-7.07-2.54-10.88Z"/>
  </g>
  <g>
    <path class="cls-1" d="M137.05,10.19c-.94,5.28-5.32,8.51-10.03,8.68-.99,.05-2-.05-3-.29,1.16-.05,2.13-.22,3-.57,.51-.22,.99-.5,1.44-.85,2.2-1.73,3-4.87,1.88-7.4-1.23-2.77-4.56-3.51-6.88-1.55-.28,.24-.44,.63-.85,.73h.01c.34-2.7,3.11-5.31,6.06-5.73,1.15-.17,2.28-.17,3.39,.18,.66,.21,.85-.02,.84-.71-.01-.89,.01-1.79-.46-2.67,2.9,.61,5.32,6.16,4.6,10.19Z"/>
    <path class="cls-2" d="M113.33,7.43c1.94-5,6.86-7.33,11.52-6.58,.98,.14,1.95,.43,2.89,.87-1.15-.18-2.14-.2-3.05-.02-.55,.12-1.07,.3-1.58,.56-2.49,1.28-3.88,4.2-3.27,6.9,.67,2.95,3.8,4.33,6.45,2.85,.32-.19,.55-.54,.98-.55h-.01c-.85,2.58-4.07,4.6-7.05,4.45-1.16-.05-2.27-.27-3.29-.83-.61-.33-.84-.14-.96,.53-.16,.88-.36,1.76-.06,2.71-2.73-1.16-4.03-7.07-2.54-10.88Z"/>
  </g>
  <g>
    <path class="cls-1" d="M108.87,10.19c-.94,5.28-5.32,8.51-10.03,8.68-.99,.05-2-.05-3-.29,1.16-.05,2.13-.22,3-.57,.51-.22,.99-.5,1.44-.85,2.2-1.73,3-4.87,1.88-7.4-1.23-2.77-4.56-3.51-6.88-1.55-.28,.24-.44,.63-.85,.73h.01c.34-2.7,3.11-5.31,6.06-5.73,1.15-.17,2.28-.17,3.39,.18,.66,.21,.85-.02,.84-.71-.01-.89,.01-1.79-.46-2.67,2.9,.61,5.32,6.16,4.6,10.19Z"/>
    <path class="cls-2" d="M85.15,7.43c1.94-5,6.86-7.33,11.52-6.58,.98,.14,1.95,.43,2.89,.87-1.15-.18-2.14-.2-3.05-.02-.55,.12-1.07,.3-1.58,.56-2.49,1.28-3.88,4.2-3.27,6.9,.67,2.95,3.8,4.33,6.45,2.85,.32-.19,.55-.54,.98-.55h-.01c-.85,2.58-4.07,4.6-7.05,4.45-1.16-.05-2.27-.27-3.29-.83-.61-.33-.84-.14-.96,.53-.16,.88-.36,1.76-.06,2.71-2.73-1.16-4.03-7.07-2.54-10.88Z"/>
  </g>
  <g>
    <path class="cls-1" d="M80.7,10.19c-.94,5.28-5.32,8.51-10.03,8.68-.99,.05-2-.05-3-.29,1.16-.05,2.13-.22,3-.57,.51-.22,.99-.5,1.44-.85,2.2-1.73,3-4.87,1.88-7.4-1.23-2.77-4.56-3.51-6.88-1.55-.28,.24-.44,.63-.85,.73h.01c.34-2.7,3.11-5.31,6.06-5.73,1.15-.17,2.28-.17,3.39,.18,.66,.21,.85-.02,.84-.71-.01-.89,.01-1.79-.46-2.67,2.9,.61,5.32,6.16,4.6,10.19Z"/>
    <path class="cls-2" d="M56.98,7.43c1.94-5,6.86-7.33,11.52-6.58,.98,.14,1.95,.43,2.89,.87-1.15-.18-2.14-.2-3.05-.02-.55,.12-1.07,.3-1.58,.56-2.49,1.28-3.88,4.2-3.27,6.9,.67,2.95,3.8,4.33,6.45,2.85,.32-.19,.55-.54,.98-.55h-.01c-.85,2.58-4.07,4.6-7.05,4.45-1.16-.05-2.27-.27-3.29-.83-.61-.33-.84-.14-.96,.53-.16,.88-.36,1.76-.06,2.71-2.73-1.16-4.03-7.07-2.54-10.88Z"/>
  </g>
  <g>
    <path class="cls-1" d="M52.52,10.19c-.94,5.28-5.32,8.51-10.03,8.68-.99,.05-2-.05-3-.29,1.16-.05,2.13-.22,3-.57,.51-.22,.99-.5,1.44-.85,2.2-1.73,3-4.87,1.88-7.4-1.23-2.77-4.56-3.51-6.88-1.55-.28,.24-.44,.63-.85,.73h.01c.34-2.7,3.11-5.31,6.06-5.73,1.15-.17,2.28-.17,3.39,.18,.66,.21,.85-.02,.84-.71-.01-.89,.01-1.79-.46-2.67,2.9,.61,5.32,6.16,4.6,10.19Z"/>
    <path class="cls-2" d="M28.8,7.43C30.74,2.43,35.66,.1,40.31,.84c.98,.14,1.95,.43,2.89,.87-1.15-.18-2.14-.2-3.05-.02-.55,.12-1.07,.3-1.58,.56-2.49,1.28-3.88,4.2-3.27,6.9,.67,2.95,3.8,4.33,6.45,2.85,.32-.19,.55-.54,.98-.55h-.01c-.85,2.58-4.07,4.6-7.05,4.45-1.16-.05-2.27-.27-3.29-.83-.61-.33-.84-.14-.96,.53-.16,.88-.36,1.76-.06,2.71-2.73-1.16-4.03-7.07-2.54-10.88Z"/>
  </g>
  <g>
    <path class="cls-1" d="M24.34,10.19c-.94,5.28-5.32,8.51-10.03,8.68-.99,.05-2-.05-3-.29,1.16-.05,2.13-.22,3-.57,.51-.22,.99-.5,1.44-.85,2.2-1.73,3-4.87,1.88-7.4-1.23-2.77-4.56-3.51-6.88-1.55-.28,.24-.44,.63-.85,.73h.01c.34-2.7,3.11-5.31,6.06-5.73,1.15-.17,2.28-.17,3.39,.18,.66,.21,.85-.02,.84-.71-.01-.89,.01-1.79-.46-2.67,2.9,.61,5.32,6.16,4.6,10.19Z"/>
    <path class="cls-2" d="M.62,7.43C2.56,2.43,7.49,.1,12.14,.84c.98,.14,1.95,.43,2.89,.87-1.15-.18-2.14-.2-3.05-.02-.55,.12-1.07,.3-1.58,.56-2.49,1.28-3.88,4.2-3.27,6.9,.67,2.95,3.8,4.33,6.45,2.85,.32-.19,.55-.54,.98-.55h-.01c-.85,2.58-4.07,4.6-7.05,4.45-1.16-.05-2.27-.27-3.29-.83-.61-.33-.84-.14-.96,.53-.16,.88-.36,1.76-.06,2.71C.44,17.15-.86,11.24,.62,7.43Z"/>
  </g>
</svg>